<svg width="512" height="512" viewBox="0 0 512 512" fill="none" xmlns="http://www.w3.org/2000/svg">
<g clip-path="url(#clip0_23_2)">
<path d="M184.175 225.721C184.175 225.721 83.5059 177.054 64.1719 177.72C9.47187 179.607 6.18388 249.495 8.17088 249.722C38.9219 253.222 192.176 273.723 192.176 273.723L184.175 225.721Z" fill="#B4AA5A"/>
<path d="M272.177 185.72C272.177 185.72 171.617 207.287 161.122 236.787L166.628 254.838C189.457 289.064 266.029 371.01 280.177 385.724C296.844 403.058 323.511 389.058 328.178 385.724L272.177 185.72Z" fill="#AF915A"/>
<path d="M504.183 337.723C504.183 329.723 496.183 321.057 496.183 321.057C483.183 331.057 428.847 362.224 384.18 362.224C384.18 362.224 376.18 264.222 420.085 220.22C420.085 220.22 384.18 145.719 320.178 145.719C288.177 145.719 270.989 156.095 264.177 169.719C248.177 201.72 248.177 353.724 328.179 401.725C348.317 413.809 414.885 401.514 456.182 388.725C507.849 372.724 504.183 343.724 504.183 337.723Z" fill="#968C5A"/>
<path d="M143.911 265.603C125.297 282.923 143.78 309.399 159.265 309.399C166.258 309.399 208.22 309.399 208.22 309.399L172.998 266.195L143.911 265.603Z" fill="#B19D5A"/>
<path d="M184.243 197.501C185.071 190.46 213.293 179.376 237.615 173.835L240.671 171.662C238.082 166.316 235.695 149.731 208.22 149.731C180.744 149.731 126.53 183.925 128.66 195.458L170.998 221.192L185.481 210.895C184.373 204.786 184.008 199.491 184.243 197.501Z" fill="#B19D5A"/>
<path d="M272.162 173.523C269.501 168.816 254.497 169.991 237.615 173.836C213.292 179.376 185.071 190.46 184.243 197.502C184.009 199.492 184.373 204.787 185.483 210.897C187.531 222.16 192.122 236.199 200.227 237.466C216.212 239.963 253.512 244.126 264.169 253.45C264.17 224.477 289.827 204.776 272.162 173.523Z" fill="#B4AA5A"/>
<path d="M511.98 334.292C511.97 333.938 511.961 333.631 511.961 333.375C511.961 323.529 504.445 314.256 502.321 311.829C501.432 310.497 500.535 309.148 499.621 307.773C492.754 297.439 484.971 285.726 475.867 274.524C473.081 271.094 468.043 270.574 464.614 273.361C461.185 276.147 460.664 281.185 463.45 284.614C471.496 294.515 478.607 305.073 484.944 314.598C481.984 316.485 478.337 318.673 474.121 321.026C469.527 313.717 462.079 302.223 457.381 296.82C454.483 293.486 449.43 293.132 446.095 296.032C442.761 298.931 442.408 303.984 445.308 307.318C448.916 311.468 455.23 321.08 459.887 328.448C455.767 330.454 451.39 332.464 446.833 334.409C443.826 328.69 439.293 320.696 434.993 315.575C432.152 312.191 427.105 311.754 423.722 314.594C420.338 317.435 419.899 322.482 422.74 325.865C425.672 329.356 429.121 335.239 431.829 340.275C418.702 344.919 404.828 348.5 391.67 349.543C391.312 338.352 391.303 316.282 395.135 292.595L401.222 296.734C402.599 297.67 404.164 298.119 405.712 298.119C408.272 298.119 410.788 296.892 412.335 294.616C414.819 290.962 413.871 285.986 410.217 283.502L398.558 275.576C399.802 270.488 401.262 265.428 402.962 260.48L410.314 268.024C411.882 269.633 413.962 270.441 416.044 270.441C418.057 270.441 420.071 269.686 421.627 268.17C424.792 265.087 424.857 260.022 421.773 256.857L409.645 244.411C412.25 239.206 415.221 234.282 418.605 229.765L427.747 245.763C429.224 248.348 431.923 249.795 434.7 249.795C436.046 249.795 437.41 249.455 438.662 248.74C442.498 246.548 443.831 241.661 441.639 237.825L427.019 212.238C426.033 210.239 419.818 198.014 408.664 183.738C409.407 164.549 417.766 145.326 423.961 133.562C423.986 133.562 424.011 133.566 424.037 133.566L424.433 133.17C432.929 132.946 439.763 126.111 439.987 117.615L440.029 117.573C440.029 117.017 440 116.468 439.944 115.926C439.297 107.683 432.417 101.192 424.008 101.192C415.172 101.192 408.008 108.356 408.008 117.192C408.008 117.652 408.039 118.104 408.077 118.553C408.079 118.59 408.08 118.627 408.082 118.664C408.092 118.769 408.102 118.875 408.114 118.98C408.321 121.307 409.025 123.492 410.122 125.428C404.737 135.532 397.821 150.852 394.524 167.736C372.037 145.343 346.455 133.55 320.131 133.55C272.948 133.55 257.77 160.569 257.147 161.718L258.664 162.539C255.007 162.727 250.804 163.219 246.229 163.984C242.888 155.836 234.97 141.73 208.233 141.73C182.111 141.73 139.098 166.931 125.927 182.758C125.349 183.452 124.823 184.138 124.34 184.815C100.493 174.716 74.838 165.139 64.089 165.527C41.56 166.302 23.588 177.556 12.112 198.072C1.47801 217.081 0.196012 236.826 0.0470115 240.592C-0.0819885 243.848 -0.424989 252.499 7.51001 253.405C26.736 255.593 88.184 264.301 130.768 270.406C127.391 277.95 127.195 286.534 130.5 294.939C135.618 307.952 147.72 317.398 159.277 317.398H207.472C228.741 340.211 251.49 363.443 264.519 376.75C268.912 381.236 272.329 384.725 274.399 386.878C284.618 397.506 293.701 401.114 301.325 401.114C306.555 401.114 311.091 399.408 314.842 397.112C317.959 399.789 320.904 402.059 323.579 403.904C330.837 408.909 342.42 410.808 355.834 410.808C396.925 410.808 455.14 392.972 458.371 391.971C494.666 380.732 512.703 361.326 511.98 334.292ZM261.778 178.445C263.91 178.445 265.209 178.623 265.925 178.771C274.066 194.223 269.616 205.851 264.025 220.467C263.175 222.688 262.301 224.981 261.456 227.341C255.857 218.458 248.659 207.829 242.138 200.622C239.173 197.345 234.114 197.093 230.839 200.059C227.563 203.023 227.31 208.082 230.275 211.359C236.608 218.357 243.964 229.485 249.389 238.233C237.994 235.055 223.763 232.799 208.931 230.659C206.138 230.256 203.613 229.891 201.508 229.565C200.805 229.335 197.615 226.386 194.86 216.158C192.979 209.179 192.269 202.429 192.187 199.572C194.813 197.182 203.967 192.168 220.624 186.803C236.384 181.726 252.538 178.445 261.778 178.445ZM164.59 173.306C181.452 163.7 198.174 157.732 208.23 157.732C222.278 157.732 227.478 162.483 230.173 167.411C224.244 168.919 218.127 170.722 212.119 172.765C177.731 184.461 176.733 192.945 176.307 196.567C175.955 199.558 176.567 209.913 179.4 220.338L176.26 213.486C176.258 211.185 175.261 208.961 173.485 207.431L172.927 206.214C172.85 206.249 172.612 206.362 172.248 206.556C172.079 206.459 171.911 206.363 171.732 206.276C166.657 203.838 154.325 197.98 139.595 191.443C143.572 187.285 151.531 180.746 164.59 173.306ZM16.237 238.342C17.104 229.164 20.699 210.344 32.485 196.614C40.696 187.049 51.513 181.969 64.637 181.517C64.749 181.513 64.864 181.511 64.984 181.511C73.529 181.511 99.291 191.435 125.028 202.572C125.352 202.739 125.687 202.886 126.033 203.008C137.901 208.158 149.715 213.541 159.786 218.305C158.037 220.928 156.411 224.048 155.119 227.721C138.801 223.239 98.955 212.664 70.113 208.082C65.753 207.394 61.651 210.365 60.957 214.728C60.263 219.091 63.239 223.191 67.603 223.884C96.179 228.423 137.299 239.415 152.314 243.55C152.295 244.18 152.274 244.807 152.274 245.456C152.274 248.05 152.944 251.348 157.172 258.037C121.681 252.914 46.657 242.155 16.237 238.342ZM159.275 301.397C154.908 301.397 148.286 296.449 145.389 289.083C143.701 284.791 142.909 278.639 147.993 272.883C158.497 274.397 166.599 275.569 170.77 276.174C176.3 282.884 183.484 291.157 192.759 301.399L159.275 301.397ZM453.637 376.687C406.727 391.213 347.135 400.713 332.662 390.731C314.921 378.497 279.434 340.524 272.111 284.383C271.54 280.003 267.524 276.913 263.144 277.487C258.763 278.057 255.674 282.072 256.246 286.454C261.985 330.457 283.051 364.048 302.356 384.989C298.793 385.344 293.537 383.696 285.931 375.786C283.839 373.61 280.388 370.086 275.95 365.554C260.484 349.759 234.596 323.324 211.51 298.213C197.449 282.919 187.95 271.927 181.523 264.029C181.338 263.773 181.142 263.527 180.928 263.295C170.994 251.02 168.752 246.514 168.276 244.998C168.443 227.647 178.026 221.635 179.53 220.798C182.728 232.297 188.649 243.75 199.002 245.367C201.194 245.709 203.781 246.083 206.644 246.496C221.196 248.597 251.479 252.967 258.91 259.469C260.398 260.771 262.278 261.448 264.18 261.448C265.299 261.448 266.426 261.214 267.484 260.733C270.342 259.436 272.178 256.587 272.178 253.448C272.178 243.929 275.475 235.311 278.967 226.185C285.052 210.281 291.949 192.253 279.135 169.584C278.003 167.581 276.393 166.155 274.599 165.118C280.259 159.264 293.638 149.55 320.127 149.55C369.217 149.55 401.249 199.009 410.185 214.727C368.778 262.321 375.767 354.484 376.095 358.505C376.434 362.656 379.903 365.854 384.069 365.854C425.278 365.854 473.205 341.385 494.069 327.8C495.162 329.786 495.96 331.821 495.96 333.375C495.96 333.75 495.971 334.2 495.985 334.72C496.174 341.798 496.75 363.336 453.637 376.687Z" fill="black"/>
<path d="M352.099 221.47C343.281 221.47 336.107 228.644 336.107 237.462C336.107 246.28 343.281 253.455 352.099 253.455C360.917 253.455 368.092 246.28 368.092 237.462C368.092 228.645 360.918 221.47 352.099 221.47Z" fill="black"/>
</g>
<defs>
<clipPath id="clip0_23_2">
<rect width="512" height="512" fill="white" transform="translate(0.000976562)"/>
</clipPath>
</defs>
</svg>
