<svg width="512" height="512" viewBox="0 0 512 512" fill="none" xmlns="http://www.w3.org/2000/svg">
<path d="M465.274 202.154C445.918 189.655 421.954 179.092 396.098 171.234C363.775 161.384 328.492 155.785 295.557 155.93C271.794 156.03 233.371 164.122 195.973 177.768C136.592 127.158 158.263 103.495 190.107 88.257C211.711 77.928 232.625 75.6799 256.556 76.5589C386.137 81.3549 452.474 180.75 465.274 202.154Z" fill="#3E81C8"/>
<path d="M444.282 332.503C434.465 357.669 393.015 439.812 271.037 435.448C259.306 435.036 212.814 428.759 203.987 421.023C191.087 409.726 182.461 384.025 202.05 347.117C237.489 359.45 273.084 366.684 295.557 366.796C340.658 366.996 390.188 356.4 430.48 338.937C435.211 336.888 439.83 334.74 444.282 332.503Z" fill="#3E81C8"/>
<path d="M512 261.357C512 290.997 484.141 318.067 444.282 338.068C439.83 340.305 435.211 342.453 430.48 344.501C321.335 303.174 392.369 172.369 396.098 165.668C421.954 173.526 445.918 184.089 465.274 196.588C493.579 214.854 512 237.259 512 261.357Z" fill="#3768AF"/>
<path d="M168.76 336.91C168.96 336.999 169.161 337.099 169.361 337.188C145.975 346.034 119.185 362.622 98.991 390.901C92.853 399.498 81.762 403.016 71.753 399.636C30.722 385.778 0 329.129 0 261.357C0 193.585 30.722 136.935 71.753 123.076C81.761 119.696 92.852 123.214 98.991 131.811C119.185 160.091 145.975 176.68 169.361 185.535C169.161 185.624 168.96 185.724 168.76 185.813C126.91 205.614 93.006 232.138 93.006 261.355C93.006 290.572 126.909 317.109 168.76 336.91Z" fill="#3768AF"/>
<path d="M430.481 344.501C390.189 361.965 340.658 372.561 295.558 372.36C273.086 372.249 237.491 365.014 202.051 352.681C189.062 348.173 176.084 342.964 163.796 337.187C163.596 337.098 163.395 336.998 163.195 336.909C121.345 317.108 87.4409 290.573 87.4409 261.356C87.4409 232.139 121.344 205.615 163.195 185.814C163.395 185.725 163.596 185.625 163.796 185.536C174.17 180.661 185.022 176.186 195.974 172.202C233.372 158.556 271.794 150.464 295.558 150.364C328.493 150.219 363.776 155.818 396.099 165.668C392.37 172.369 321.336 303.174 430.481 344.501Z" fill="#61ACD2"/>
<path d="M438.539 255.554C443.456 255.554 447.443 251.568 447.443 246.65C447.443 241.732 443.456 237.746 438.539 237.746C433.621 237.746 429.635 241.732 429.635 246.65C429.635 251.568 433.621 255.554 438.539 255.554Z" fill="#495577"/>
<path d="M327.421 225.96C311.336 225.96 298.296 212.921 298.296 196.835C298.296 180.75 311.335 167.71 327.421 167.71V225.96Z" fill="#3E81C8"/>
<path d="M327.421 284.209C311.336 284.209 298.296 271.17 298.296 255.084C298.296 238.999 311.335 225.959 327.421 225.959V284.209Z" fill="#3E81C8"/>
<path d="M327.421 342.459C311.336 342.459 298.296 329.42 298.296 313.334C298.296 297.248 311.335 284.209 327.421 284.209V342.459Z" fill="#3E81C8"/>
<path d="M263.791 233.009C251.599 233.009 241.716 223.125 241.716 210.934C241.716 198.742 251.6 188.859 263.791 188.859V233.009Z" fill="#3E81C8"/>
<path d="M263.791 277.16C251.599 277.16 241.716 267.276 241.716 255.085C241.716 242.893 251.6 233.01 263.791 233.01V277.16Z" fill="#3E81C8"/>
<path d="M263.791 321.311C251.599 321.311 241.716 311.427 241.716 299.236C241.716 287.044 251.6 277.161 263.791 277.161V321.311Z" fill="#3E81C8"/>
<path d="M202.574 240.958C194.773 240.958 188.447 234.634 188.447 226.831C188.447 219.028 194.771 212.704 202.574 212.704V240.958Z" fill="#3E81C8"/>
<path d="M202.574 269.21C194.773 269.21 188.447 262.886 188.447 255.083C188.447 247.282 194.771 240.956 202.574 240.956V269.21Z" fill="#3E81C8"/>
<path d="M202.574 297.464C194.773 297.464 188.447 291.14 188.447 283.337C188.447 275.536 194.771 269.21 202.574 269.21V297.464Z" fill="#3E81C8"/>
</svg>
