<svg width="512" height="512" viewBox="0 0 512 512" fill="none" xmlns="http://www.w3.org/2000/svg">
<path d="M292.543 373.371C301.802 417.887 329.109 443.289 329.109 443.289C368.875 404.666 423.882 341.645 435.033 328.779C411.435 350.942 383.862 369.549 354.091 375.785C347.169 377.22 340.133 378.008 332.995 378.008C319.088 378.007 305.562 376.381 292.543 373.371Z" fill="#3B804B"/>
<path d="M164.361 185.228C171.626 177.735 178.637 170.381 185.139 166.037C218.25 143.988 271.022 134.539 330.449 134.539C373.847 134.539 413.715 152.511 444.946 172.883C445.581 173.302 447.524 174.585 447.867 174.801L391.349 68.7109C391.349 68.7109 178.624 86.4409 164.361 185.228Z" fill="#3B804B"/>
<path d="M105.132 265.331C120.179 257.332 128.697 257.492 143.956 262.697C155.203 266.525 174.371 298.899 182.301 308.626C187.95 315.547 194.23 322.22 201.059 328.498C210.654 337.347 221.351 345.46 232.925 352.513C261.095 369.659 294.561 380.551 330.45 380.551C337.594 380.551 344.633 379.765 351.555 378.322C441.884 359.405 512 226.592 512 226.592C512 226.592 485.862 195.775 444.951 169.073C413.713 148.702 373.852 130.732 330.45 130.732C271.017 130.732 218.256 140.183 185.144 162.231C166.229 174.842 143.098 213.028 121.687 205.406C78.275 189.953 52.238 111.208 0 98.837C36.096 174.076 36.096 275.962 0 351.189C40.808 346.807 61.764 288.384 105.132 265.331Z" fill="#6ABE71"/>
<path d="M281.617 259.524C268.096 278.763 265.883 298.856 271.898 326.079C298.049 335.057 342.199 315.064 383.681 287.937L281.617 259.524Z" fill="#3B804B"/>
<path d="M439.815 239.689C445.427 239.689 449.976 235.14 449.976 229.528C449.976 223.916 445.427 219.367 439.815 219.367C434.203 219.367 429.654 223.916 429.654 229.528C429.654 235.14 434.203 239.689 439.815 239.689Z" fill="#3B804B"/>
</svg>
