<svg width="512" height="512" viewBox="0 0 512 512" fill="none" xmlns="http://www.w3.org/2000/svg">
<g clip-path="url(#clip0_23_211)">
<path d="M396.082 192.724H357.373C355.003 192.724 353.082 190.802 353.082 188.432C353.082 186.06 355.003 184.138 357.373 184.138H396.082C455.264 184.138 503.413 135.989 503.413 76.8063C503.413 74.4362 505.335 72.5144 507.705 72.5144C510.077 72.5144 511.999 74.4362 511.999 76.8063C512.001 140.721 459.998 192.724 396.082 192.724Z" fill="#D13239"/>
<path d="M124.498 137.405C55.7406 137.405 0.000976562 193.144 0.000976562 261.904H259.015C327.775 261.904 383.514 206.164 383.514 137.405H124.498V137.405Z" fill="#FF5959"/>
<path d="M138.245 137.405C138.245 205.54 192.981 260.883 260.878 261.88C328.776 260.883 383.512 205.54 383.512 137.405H138.245V137.405Z" fill="#FF8189"/>
<path d="M259.015 347.505H0.000976562V347.507C0.000976562 416.266 55.7406 472.004 124.498 472.004H383.512C383.512 403.244 327.773 347.505 259.015 347.505Z" fill="#FF5959"/>
<path d="M259.015 347.505H150.412V347.507C150.412 416.266 206.151 472.004 274.911 472.004H383.512C383.512 403.244 327.773 347.505 259.015 347.505Z" fill="#D13239"/>
<path d="M291.44 194.078C301.979 194.078 310.522 185.535 310.522 174.997C310.522 164.458 301.979 155.915 291.44 155.915C280.902 155.915 272.359 164.458 272.359 174.997C272.359 185.535 280.902 194.078 291.44 194.078Z" fill="white"/>
<path d="M291.441 184.537C296.709 184.537 300.98 180.265 300.98 174.997C300.98 169.728 296.709 165.457 291.441 165.457C286.172 165.457 281.901 169.728 281.901 174.997C281.901 180.265 286.172 184.537 291.441 184.537Z" fill="#00ADBB"/>
<path d="M150.412 261.904H0.000976562V290.438H150.412V261.904Z" fill="#FF8189"/>
<path d="M150.412 290.436H0.000976562V318.97H150.412V290.436Z" fill="#FF5959"/>
<path d="M150.412 318.97H0.000976562V347.505H150.412V318.97Z" fill="#FF8189"/>
<path d="M200.522 290.436H150.412V276.17H200.522C204.462 276.17 207.656 279.364 207.656 283.302C207.656 287.244 204.462 290.436 200.522 290.436Z" fill="#D13239"/>
<path d="M200.522 309.054H150.412V294.785H200.522C204.462 294.785 207.656 297.979 207.656 301.919C207.656 305.86 204.462 309.054 200.522 309.054Z" fill="#D13239"/>
<path d="M200.522 327.669H150.412V313.401H200.522C204.462 313.401 207.656 316.595 207.656 320.535C207.656 324.475 204.462 327.669 200.522 327.669Z" fill="#D13239"/>
<path d="M381.673 160.207H342.965C340.593 160.207 338.671 158.285 338.671 155.913C338.671 153.543 340.593 151.621 342.965 151.621H381.673C440.856 151.621 489.005 103.472 489.005 44.29C489.005 41.9179 490.927 39.9961 493.297 39.9961C495.669 39.9961 497.591 41.9179 497.591 44.29C497.591 108.207 445.59 160.207 381.673 160.207Z" fill="#D13239"/>
<path d="M382.7 271.833C380.328 271.833 378.406 269.911 378.406 267.539C378.406 244.562 359.714 225.87 336.735 225.87H320.796C318.424 225.87 316.502 223.946 316.502 221.576C316.502 219.204 318.424 217.282 320.796 217.282H336.735C364.446 217.282 386.992 239.828 386.992 267.539C386.992 269.911 385.07 271.833 382.7 271.833Z" fill="#D13239"/>
<path d="M413.65 260.896C411.278 260.896 409.357 258.974 409.357 256.602C409.357 233.626 390.664 214.932 367.686 214.932H351.747C349.376 214.932 347.455 213.01 347.455 210.638C347.455 208.267 349.376 206.346 351.747 206.346H367.686C395.396 206.346 417.942 228.892 417.942 256.602C417.942 258.974 416.023 260.896 413.65 260.896Z" fill="#D13239"/>
<path d="M320.099 363.505H211.707V373.523H335.179C330.415 369.834 325.377 366.482 320.099 363.505ZM360.401 399.737H225.626V409.755H366.854C364.859 406.308 362.706 402.964 360.401 399.737ZM378.209 435.97H247.96V445.986H380.78C380.062 442.595 379.2 439.255 378.209 435.97Z" fill="#FF8189"/>
</g>
<defs>
<clipPath id="clip0_23_211">
<rect width="512" height="512" fill="white" transform="translate(0.000976562)"/>
</clipPath>
</defs>
</svg>
