<svg width="512" height="512" viewBox="0 0 512 512" fill="none" xmlns="http://www.w3.org/2000/svg">
<g clip-path="url(#clip0_23_305)">
<path d="M366.301 257.534H284.635C275.612 257.534 268.297 250.219 268.297 241.196V159.531C268.297 150.508 275.612 143.193 284.635 143.193C338.674 143.193 382.638 187.156 382.638 241.195C382.639 250.219 375.324 257.534 366.301 257.534Z" fill="#7D868C"/>
<path d="M1.88002 306.231L35.118 241.196L1.88002 176.161C-5.60298 161.521 10.951 146.191 24.977 154.803L143.01 227.273C153.373 233.637 153.392 248.744 143.01 255.119L24.977 327.589C11.067 336.128 -5.67498 321.015 1.88002 306.231Z" fill="#7D868C"/>
<path d="M35.1149 241.189L35.1179 241.197L1.87988 306.231C-5.67612 321.013 11.0669 336.128 24.9769 327.589L143.01 255.119C148.202 251.931 150.793 246.559 150.79 241.189H35.1149Z" fill="#747C81"/>
<path d="M178.787 333.791C139.667 309.688 118.124 276.803 118.124 241.196C118.124 232.173 125.439 224.858 134.462 224.858H495.663C504.686 224.858 512.001 232.173 512.001 241.196C512 356.168 300.813 408.975 178.787 333.791Z" fill="#A2A7AB"/>
<path d="M118.124 241.189C118.124 241.191 118.124 241.193 118.124 241.197C118.124 276.803 139.668 309.688 178.787 333.792C300.813 408.976 512 356.169 512 241.197C512 241.195 512 241.193 512 241.189H118.124Z" fill="#7D868C"/>
<path d="M194.446 332.943L232.918 291.278C239.039 284.647 249.375 284.237 256.004 290.358C262.633 296.479 263.044 306.815 256.924 313.444L256.648 313.742L280.427 307.406C289.148 305.082 298.098 310.268 300.42 318.986C302.743 327.705 297.559 336.657 288.84 338.979L210.655 359.812C194.908 364.009 183.378 344.928 194.446 332.943Z" fill="#747C81"/>
<path d="M381.126 286.023C372.103 286.023 364.788 293.338 364.788 302.361C364.788 311.384 372.103 318.699 381.126 318.699H472.213C483.95 308.716 493.241 297.722 499.878 286.003C477.69 285.974 441.05 286.023 381.126 286.023Z" fill="#747C81"/>
<path d="M420.801 276.409C432.074 276.409 441.212 267.271 441.212 255.998C441.212 244.725 432.074 235.587 420.801 235.587C409.528 235.587 400.39 244.725 400.39 255.998C400.39 267.271 409.528 276.409 420.801 276.409Z" fill="#5C6466"/>
</g>
<defs>
<clipPath id="clip0_23_305">
<rect width="512" height="512" fill="white"/>
</clipPath>
</defs>
</svg>
