<svg width="512" height="512" viewBox="0 0 512 512" fill="none" xmlns="http://www.w3.org/2000/svg">
<g clip-path="url(#clip0_23_246)">
<path d="M6.10352e-05 290.068C6.10352e-05 280.642 7.64205 273.001 17.067 273.001H182.515C191.941 273.001 199.582 280.643 199.582 290.068C199.582 299.493 191.94 307.135 182.515 307.135H17.069C7.64203 307.135 6.10352e-05 299.493 6.10352e-05 290.068Z" fill="#AD4446"/>
<path d="M76.8601 386.952C76.8601 357.103 101.145 332.818 130.995 332.818H265.398C274.824 332.818 282.465 340.46 282.465 349.885C282.465 359.31 274.823 366.952 265.398 366.952H130.994C119.966 366.952 110.994 375.924 110.994 386.951C110.994 397.978 119.967 406.951 130.994 406.951H193.561C202.987 406.951 210.628 414.593 210.628 424.018V466.772C210.628 476.198 202.986 483.839 193.561 483.839C184.136 483.839 176.494 476.197 176.494 466.772V441.085H130.995C101.146 441.087 76.8601 416.801 76.8601 386.952Z" fill="#AD4446"/>
<path d="M293.506 327.778L442.796 274.011C459.538 267.981 473.274 288.651 461.043 301.728L362.075 407.515C338.879 432.307 297.295 420.5 290.601 387.206L282.558 347.199C280.885 338.868 285.577 330.633 293.506 327.778Z" fill="#C74C4E"/>
<path d="M6.10352e-05 221.932C6.10352e-05 212.506 7.64205 204.865 17.067 204.865H182.515C191.941 204.865 199.582 212.507 199.582 221.932C199.582 231.357 191.94 238.999 182.515 238.999H17.069C7.64203 238.999 6.10352e-05 231.359 6.10352e-05 221.932Z" fill="#C74C4E"/>
<path d="M76.8601 125.049C76.8601 95.1999 101.145 70.9139 130.995 70.9139H176.495V45.2269C176.495 35.8009 184.137 28.1599 193.562 28.1599C202.987 28.1599 210.629 35.8019 210.629 45.2269V87.9809C210.629 97.4069 202.987 105.048 193.562 105.048L130.996 105.048C119.968 105.048 110.996 114.021 110.996 125.048C110.996 136.075 119.969 145.047 130.996 145.047H265.398C274.824 145.047 282.465 152.689 282.465 162.114C282.465 171.539 274.823 179.181 265.398 179.181H130.994C101.146 179.183 76.8601 154.898 76.8601 125.049Z" fill="#C74C4E"/>
<path d="M282.555 164.801L290.598 124.795C297.291 91.5121 338.871 79.6881 362.072 104.487L461.04 210.272C473.191 223.262 459.643 244.058 442.793 237.989L293.506 184.223C285.572 181.365 280.886 173.125 282.555 164.801Z" fill="#DE5153"/>
<path d="M159.302 256C159.302 227.753 169.722 199.507 190.566 177.496C219.145 147.316 263.328 137.074 303.124 151.406L484.391 216.69C521.22 229.955 521.189 282.057 484.391 295.31L303.125 360.594C263.328 374.927 219.146 364.686 190.566 334.504C169.722 312.494 159.302 284.247 159.302 256Z" fill="#FC5B5D"/>
<path d="M303.125 360.595L484.39 295.311C502.791 288.683 511.998 272.342 512 256H159.302C159.302 284.246 169.722 312.493 190.566 334.504C219.145 364.685 263.328 374.926 303.125 360.595Z" fill="#DE5153"/>
<path d="M212.104 209.334C212.104 221.804 222.213 231.912 234.682 231.912C247.151 231.912 257.26 221.804 257.26 209.334C257.26 196.865 247.151 186.756 234.682 186.756C222.213 186.756 212.104 196.865 212.104 209.334Z" fill="#5C6466"/>
<path d="M212.104 302.669C212.104 315.139 222.213 325.247 234.682 325.247C247.151 325.247 257.26 315.139 257.26 302.669C257.26 290.2 247.151 280.091 234.682 280.091C222.213 280.091 212.104 290.2 212.104 302.669Z" fill="#5C6466"/>
</g>
<defs>
<clipPath id="clip0_23_246">
<rect width="512.001" height="512.001" fill="white" transform="translate(512.001) rotate(90)"/>
</clipPath>
</defs>
</svg>
