<svg width="512" height="512" viewBox="0 0 512 512" fill="none" xmlns="http://www.w3.org/2000/svg">
<path d="M286.535 33.1283L332.167 173.566H479.832C510.935 173.566 523.866 213.366 498.703 231.648L379.24 318.443L424.872 458.881C434.483 488.462 400.627 513.06 375.465 494.778L256 407.983L136.537 494.778C111.375 513.06 77.5188 488.462 87.1295 458.881L132.761 318.443L13.2964 231.648C-11.8658 213.366 1.06527 173.566 32.168 173.566H179.833L225.464 33.1283C235.075 3.54952 276.925 3.54952 286.535 33.1283Z" fill="#EB6A0F"/>
<path d="M92.9926 225.559C96.5058 225.559 99.3538 222.711 99.3538 219.198C99.3538 215.685 96.5058 212.837 92.9926 212.837C89.4794 212.837 86.6313 215.685 86.6313 219.198C86.6313 222.711 89.4794 225.559 92.9926 225.559Z" fill="#7F3705"/>
<path d="M76.8776 220.446C80.5336 220.446 83.4974 217.482 83.4974 213.826C83.4974 210.17 80.5336 207.207 76.8776 207.207C73.2216 207.207 70.2578 210.17 70.2578 213.826C70.2578 217.482 73.2216 220.446 76.8776 220.446Z" fill="#7F3705"/>
<path d="M60.7642 213.288C63.4329 213.288 65.5963 211.125 65.5963 208.456C65.5963 205.788 63.4329 203.624 60.7642 203.624C58.0955 203.624 55.9321 205.788 55.9321 208.456C55.9321 211.125 58.0955 213.288 60.7642 213.288Z" fill="#7F3705"/>
<path d="M44.6491 206.062C46.2933 206.062 47.6262 204.729 47.6262 203.085C47.6262 201.44 46.2933 200.108 44.6491 200.108C43.0048 200.108 41.6719 201.44 41.6719 203.085C41.6719 204.729 43.0048 206.062 44.6491 206.062Z" fill="#7F3705"/>
<path d="M157.141 417.654C160.654 417.654 163.502 414.806 163.502 411.293C163.502 407.78 160.654 404.932 157.141 404.932C153.628 404.932 150.78 407.78 150.78 411.293C150.78 414.806 153.628 417.654 157.141 417.654Z" fill="#7F3705"/>
<path d="M146.544 431.188C150.2 431.188 153.164 428.225 153.164 424.569C153.164 420.913 150.2 417.949 146.544 417.949C142.888 417.949 139.924 420.913 139.924 424.569C139.924 428.225 142.888 431.188 146.544 431.188Z" fill="#7F3705"/>
<path d="M135.949 442.677C138.618 442.677 140.781 440.513 140.781 437.844C140.781 435.176 138.618 433.012 135.949 433.012C133.28 433.012 131.117 435.176 131.117 437.844C131.117 440.513 133.28 442.677 135.949 442.677Z" fill="#7F3705"/>
<path d="M125.352 454.097C126.996 454.097 128.329 452.764 128.329 451.12C128.329 449.476 126.996 448.143 125.352 448.143C123.708 448.143 122.375 449.476 122.375 451.12C122.375 452.764 123.708 454.097 125.352 454.097Z" fill="#7F3705"/>
<path d="M354.859 417.654C358.372 417.654 361.22 414.806 361.22 411.293C361.22 407.78 358.372 404.932 354.859 404.932C351.346 404.932 348.498 407.78 348.498 411.293C348.498 414.806 351.346 417.654 354.859 417.654Z" fill="#602904"/>
<path d="M365.456 431.188C369.112 431.188 372.076 428.225 372.076 424.569C372.076 420.913 369.112 417.949 365.456 417.949C361.8 417.949 358.836 420.913 358.836 424.569C358.836 428.225 361.8 431.188 365.456 431.188Z" fill="#602904"/>
<path d="M376.051 442.677C378.72 442.677 380.883 440.513 380.883 437.844C380.883 435.176 378.72 433.012 376.051 433.012C373.383 433.012 371.219 435.176 371.219 437.844C371.219 440.513 373.383 442.677 376.051 442.677Z" fill="#602904"/>
<path d="M386.648 454.097C388.292 454.097 389.625 452.764 389.625 451.12C389.625 449.476 388.292 448.143 386.648 448.143C385.004 448.143 383.671 449.476 383.671 451.12C383.671 452.764 385.004 454.097 386.648 454.097Z" fill="#602904"/>
<path d="M419.007 225.559C422.52 225.559 425.368 222.711 425.368 219.198C425.368 215.685 422.52 212.837 419.007 212.837C415.494 212.837 412.646 215.685 412.646 219.198C412.646 222.711 415.494 225.559 419.007 225.559Z" fill="#602904"/>
<path d="M435.122 220.446C438.778 220.446 441.742 217.482 441.742 213.826C441.742 210.17 438.778 207.207 435.122 207.207C431.466 207.207 428.502 210.17 428.502 213.826C428.502 217.482 431.466 220.446 435.122 220.446Z" fill="#602904"/>
<path d="M451.235 213.288C453.904 213.288 456.068 211.125 456.068 208.456C456.068 205.788 453.904 203.624 451.235 203.624C448.567 203.624 446.403 205.788 446.403 208.456C446.403 211.125 448.567 213.288 451.235 213.288Z" fill="#602904"/>
<path d="M467.351 206.062C468.995 206.062 470.328 204.729 470.328 203.085C470.328 201.44 468.995 200.108 467.351 200.108C465.707 200.108 464.374 201.44 464.374 203.085C464.374 204.729 465.707 206.062 467.351 206.062Z" fill="#602904"/>
<path d="M479.832 173.566H332.167L286.535 33.1283C281.765 18.4493 269.058 11.0641 256.291 10.9537V408.195L375.463 494.778C400.625 513.06 434.483 488.462 424.87 458.881L379.238 318.443L498.701 231.648C523.865 213.368 510.934 173.566 479.832 173.566Z" fill="#C15308"/>
<path d="M354.859 417.654C358.372 417.654 361.22 414.806 361.22 411.293C361.22 407.78 358.372 404.932 354.859 404.932C351.346 404.932 348.498 407.78 348.498 411.293C348.498 414.806 351.346 417.654 354.859 417.654Z" fill="#602904"/>
<path d="M365.456 431.188C369.112 431.188 372.076 428.225 372.076 424.569C372.076 420.913 369.112 417.949 365.456 417.949C361.8 417.949 358.836 420.913 358.836 424.569C358.836 428.225 361.8 431.188 365.456 431.188Z" fill="#602904"/>
<path d="M376.051 442.677C378.72 442.677 380.883 440.513 380.883 437.844C380.883 435.176 378.72 433.012 376.051 433.012C373.383 433.012 371.219 435.176 371.219 437.844C371.219 440.513 373.383 442.677 376.051 442.677Z" fill="#602904"/>
<path d="M386.648 454.097C388.292 454.097 389.625 452.764 389.625 451.12C389.625 449.476 388.292 448.143 386.648 448.143C385.004 448.143 383.671 449.476 383.671 451.12C383.671 452.764 385.004 454.097 386.648 454.097Z" fill="#602904"/>
<path d="M419.007 225.559C422.52 225.559 425.368 222.711 425.368 219.198C425.368 215.685 422.52 212.837 419.007 212.837C415.494 212.837 412.646 215.685 412.646 219.198C412.646 222.711 415.494 225.559 419.007 225.559Z" fill="#602904"/>
<path d="M435.122 220.446C438.778 220.446 441.742 217.482 441.742 213.826C441.742 210.17 438.778 207.207 435.122 207.207C431.466 207.207 428.502 210.17 428.502 213.826C428.502 217.482 431.466 220.446 435.122 220.446Z" fill="#602904"/>
<path d="M451.235 213.288C453.904 213.288 456.068 211.125 456.068 208.456C456.068 205.788 453.904 203.624 451.235 203.624C448.567 203.624 446.403 205.788 446.403 208.456C446.403 211.125 448.567 213.288 451.235 213.288Z" fill="#602904"/>
<path d="M467.351 206.062C468.995 206.062 470.328 204.729 470.328 203.085C470.328 201.44 468.995 200.108 467.351 200.108C465.707 200.108 464.374 201.44 464.374 203.085C464.374 204.729 465.707 206.062 467.351 206.062Z" fill="#602904"/>
<path d="M256.731 117.415C260.244 117.415 263.092 114.567 263.092 111.054C263.092 107.541 260.244 104.693 256.731 104.693C253.218 104.693 250.37 107.541 250.37 111.054C250.37 114.567 253.218 117.415 256.731 117.415Z" fill="#7F3705"/>
<path d="M256.548 100.688C260.204 100.688 263.168 97.7243 263.168 94.0683C263.168 90.4123 260.204 87.4485 256.548 87.4485C252.892 87.4485 249.928 90.4123 249.928 94.0683C249.928 97.7243 252.892 100.688 256.548 100.688Z" fill="#7F3705"/>
<path d="M256.365 81.9148C259.034 81.9148 261.197 79.7514 261.197 77.0827C261.197 74.414 259.034 72.2506 256.365 72.2506C253.697 72.2506 251.533 74.414 251.533 77.0827C251.533 79.7514 253.697 81.9148 256.365 81.9148Z" fill="#7F3705"/>
<path d="M256.183 63.076C257.827 63.076 259.16 61.743 259.16 60.0988C259.16 58.4545 257.827 57.1216 256.183 57.1216C254.539 57.1216 253.206 58.4545 253.206 60.0988C253.206 61.743 254.539 63.076 256.183 63.076Z" fill="#7F3705"/>
<path d="M256.731 104.693C256.581 104.693 256.439 104.727 256.291 104.738V117.37C256.439 117.381 256.581 117.415 256.731 117.415C260.244 117.415 263.092 114.567 263.092 111.054C263.092 107.541 260.244 104.693 256.731 104.693Z" fill="#602904"/>
<path d="M256.548 87.4486C256.46 87.4486 256.379 87.471 256.291 87.4745V100.662C256.379 100.666 256.46 100.688 256.548 100.688C260.204 100.688 263.168 97.7248 263.168 94.0684C263.168 90.412 260.204 87.4486 256.548 87.4486Z" fill="#602904"/>
<path d="M256.365 72.2523C256.339 72.2523 256.317 72.2592 256.291 72.2592V81.9079C256.317 81.9079 256.339 81.9148 256.365 81.9148C259.034 81.9148 261.197 79.7513 261.197 77.0827C261.197 74.4158 259.034 72.2523 256.365 72.2523Z" fill="#602904"/>
<path d="M259.16 60.0988C259.16 58.4921 257.884 57.1906 256.291 57.132V63.0639C257.884 63.007 259.16 61.7055 259.16 60.0988Z" fill="#602904"/>
<path d="M272.793 133.43L297.888 210.665H379.097C396.202 210.665 403.315 232.553 389.477 242.607L323.777 290.34L348.872 367.575C354.158 383.843 335.538 397.371 321.7 387.317L256 339.585L190.3 387.318C176.463 397.372 157.843 383.845 163.128 367.576L188.223 290.342L122.523 242.609C108.685 232.555 115.797 210.666 132.903 210.666H214.113L239.208 133.43C244.493 117.162 267.507 117.162 272.793 133.43Z" fill="#FA961E"/>
<path d="M379.099 210.665H297.889L272.792 133.43C270.186 125.407 263.268 121.351 256.291 121.241V339.797L321.699 387.32C335.537 397.374 354.157 383.847 348.872 367.578L323.777 290.344L389.477 242.61C403.314 232.553 396.203 210.665 379.099 210.665Z" fill="#E28117"/>
<path d="M265.616 185.82L279.985 230.043H326.484C336.277 230.043 340.349 242.576 332.426 248.332L294.809 275.663L309.177 319.886C312.205 329.2 301.542 336.946 293.619 331.19L256 303.857L218.383 331.188C210.46 336.944 199.799 329.199 202.824 319.884L217.193 275.661L179.576 248.33C171.653 242.574 175.725 230.041 185.518 230.041H232.017L246.386 185.818C249.411 176.506 262.589 176.506 265.616 185.82Z" fill="#FAB63B"/>
<path d="M326.482 230.043H279.983L265.614 185.82C264.137 181.274 260.242 178.964 256.29 178.855V304.069L293.616 331.188C301.539 336.944 312.199 329.199 309.174 319.884L294.805 275.661L332.422 248.33C340.349 242.576 336.277 230.043 326.482 230.043Z" fill="#E29B29"/>
</svg>
