<svg width="512" height="512" viewBox="0 0 512 512" fill="none" xmlns="http://www.w3.org/2000/svg">
<path d="M363.088 138.212C363.088 138.212 361.764 88.0347 297.581 83.0164C233.398 77.9981 96.4355 32.0543 96.4355 107.463C96.4355 258.834 363.088 138.212 363.088 138.212Z" fill="#FA961E"/>
<path d="M363.088 401.877C363.088 401.877 361.764 351.699 297.581 346.681C233.398 341.663 96.4355 295.719 96.4355 371.128C96.4355 522.499 363.088 401.877 363.088 401.877Z" fill="#FA961E"/>
<path d="M297.581 83.0164C286.046 82.1148 272.153 79.8892 257.135 77.2844V174.008C313.524 160.63 363.088 138.211 363.088 138.211C363.088 138.211 361.764 88.0347 297.581 83.0164Z" fill="#E58115"/>
<path d="M297.581 346.681C286.046 345.779 272.153 343.554 257.135 340.949V437.672C313.524 424.295 363.088 401.875 363.088 401.875C363.088 401.875 361.764 351.699 297.581 346.681Z" fill="#E58115"/>
<path d="M96.4355 223.435L35.8919 204.341C25.2968 201.001 13.8294 206.408 10.3264 216.443C2.07233 240.094 -7.88495 284.289 9.97299 330.538C13.7001 340.192 24.9761 345.2 35.2816 341.949L96.4355 322.663V223.435Z" fill="#FA961E"/>
<path d="M77.4534 150.471C78.8101 135.073 91.3463 122.671 107.546 120.71C149.699 115.603 229.355 106.782 271.458 107.463C309.676 108.082 409.945 127.255 446.85 198.628C486.186 274.699 481.651 255.333 504.82 273.051C516.541 282.015 518.306 326.308 475.65 355.845C423.065 392.258 419.447 419.257 91.4618 421.75C71.1042 421.905 54.9909 405.476 56.682 386.282L77.4534 150.471Z" fill="#FCD067"/>
<path d="M504.82 273.051C481.651 255.333 486.187 274.699 446.85 198.628C409.943 127.257 309.674 108.082 271.457 107.463C267.313 107.396 262.794 107.423 257.993 107.529V417.113C423.088 407.559 434.054 384.646 475.65 355.845C518.306 326.308 516.541 282.014 504.82 273.051Z" fill="#EFBD59"/>
<path d="M300.629 328.247C354.568 276.776 359.762 169.908 359.511 126.461C337.869 117.813 316.178 112.654 298.307 109.937C294.9 186.065 300.629 328.247 300.629 328.247Z" fill="#39393D"/>
<path d="M277.239 107.689C275.2 107.575 273.239 107.492 271.457 107.463C256.769 107.225 237.506 108.146 216.864 109.661C222.5 188.104 242.287 300.649 242.287 300.649C277.134 226.911 279.161 148.27 277.239 107.689Z" fill="#4A4A52"/>
<path d="M277.239 107.689C275.199 107.575 273.239 107.492 271.457 107.463C267.313 107.396 262.794 107.423 257.993 107.529V260.83C277.716 199.98 278.818 141.005 277.239 107.689Z" fill="#39393D"/>
<path d="M187.868 112.068C169.353 113.761 150.901 115.709 134.617 117.543C140.745 186.382 156.241 274.523 156.241 274.523C184.713 214.276 188.699 150.366 187.868 112.068Z" fill="#4A4A52"/>
<path d="M431.452 273.051C439.263 273.051 445.595 267.06 445.595 259.67C445.595 252.28 439.263 246.289 431.452 246.289C423.642 246.289 417.31 252.28 417.31 259.67C417.31 267.06 423.642 273.051 431.452 273.051Z" fill="#39393D"/>
</svg>
