<svg width="512" height="512" viewBox="0 0 512 512" fill="none" xmlns="http://www.w3.org/2000/svg">
<g clip-path="url(#clip0_23_331)">
<path d="M150.335 341.876V309.738H86.7305C38.8317 309.738 0.00105507 348.568 0.00105507 396.469H95.7432C125.894 396.469 150.335 372.026 150.335 341.876Z" fill="#3FAE2A"/>
<path d="M15.472 396.469C22.2852 355.367 57.9773 324.018 101.011 324.018H150.337V309.738H86.7325C38.8337 309.738 0.00300819 348.568 0.00300819 396.469H15.472Z" fill="#379624"/>
<path d="M76.4186 369.25C76.4186 373.945 80.2245 377.751 84.9192 377.751C89.614 377.751 93.4199 373.945 93.4199 369.25C93.4199 364.555 89.614 360.749 84.9192 360.749C80.2245 360.749 76.4186 364.555 76.4186 369.25Z" fill="#4A9C3B"/>
<path d="M36.7839 373.804C36.7839 381.014 42.6288 386.859 49.839 386.859C57.0491 386.859 62.894 381.014 62.894 373.804C62.894 366.594 57.0491 360.749 49.839 360.749C42.6288 360.749 36.7839 366.594 36.7839 373.804Z" fill="#4A9C3B"/>
<path d="M150.335 170.124C150.335 139.974 125.892 115.531 95.7432 115.531L0.00105507 115.531C0.00105507 163.431 38.8317 202.26 86.7305 202.26H150.335V170.124Z" fill="#3FAE2A"/>
<path d="M15.472 115.531C22.2852 156.633 57.9773 187.982 101.011 187.982H150.337V202.26H86.7325C38.8337 202.26 0.00300819 163.43 0.00300819 115.531H15.472V115.531Z" fill="#379624"/>
<path d="M31.5511 144.364C31.5511 151.95 37.7015 158.101 45.2883 158.101C52.8751 158.101 59.0254 151.95 59.0254 144.364C59.0254 136.777 52.8751 130.626 45.2883 130.626C37.7015 130.626 31.5511 136.777 31.5511 144.364Z" fill="#4A9C3B"/>
<path d="M78.6826 158.485C78.6826 168.794 87.04 177.152 97.3494 177.152C107.659 177.152 116.016 168.794 116.016 158.485C116.016 148.176 107.659 139.818 97.3494 139.818C87.04 139.818 78.6826 148.176 78.6826 158.485Z" fill="#4A9C3B"/>
<path d="M317.957 427.224C339.278 405.905 339.278 371.339 317.957 350.018L295.231 327.292L250.256 372.266C216.386 406.138 216.386 461.051 250.256 494.921L317.957 427.224Z" fill="#3FAE2A"/>
<path d="M261.195 483.986C236.948 450.105 240.022 402.698 270.452 372.27L305.329 337.393L295.231 327.295L250.256 372.27C216.387 406.142 216.387 461.055 250.256 494.925L261.195 483.986Z" fill="#379624"/>
<path d="M287.532 418.646C287.532 424.451 292.239 429.157 298.044 429.157C303.849 429.157 308.556 424.451 308.556 418.646C308.556 412.84 303.849 408.134 298.044 408.134C292.239 408.134 287.532 412.84 287.532 418.646Z" fill="#4A9C3B"/>
<path d="M255.655 431.585C255.655 435.065 258.476 437.886 261.956 437.886C265.436 437.886 268.257 435.065 268.257 431.585C268.257 428.105 265.436 425.283 261.956 425.283C258.476 425.283 255.655 428.105 255.655 431.585Z" fill="#4A9C3B"/>
<path d="M266.799 447.758C266.799 451.238 269.62 454.059 273.1 454.059C276.58 454.059 279.401 451.238 279.401 447.758C279.401 444.278 276.58 441.457 273.1 441.457C269.62 441.457 266.799 444.278 266.799 447.758Z" fill="#4A9C3B"/>
<path d="M317.957 161.98C339.278 140.659 339.278 106.095 317.957 84.7738L250.256 17.0752C216.386 50.9448 216.386 105.86 250.256 139.73L295.231 184.704L317.957 161.98Z" fill="#3FAE2A"/>
<path d="M261.195 28.0139C236.948 61.8946 240.022 109.302 270.452 139.73L305.329 174.607L295.231 184.704L250.256 139.73C216.387 105.858 216.387 50.9448 250.256 17.0752L261.195 28.0139Z" fill="#379624"/>
<path d="M258.376 71.1514C258.376 76.9568 263.082 81.6631 268.888 81.6631C274.693 81.6631 279.399 76.9568 279.399 71.1514C279.399 65.3459 274.693 60.6396 268.888 60.6396C263.082 60.6396 258.376 65.3459 258.376 71.1514Z" fill="#4A9C3B"/>
<path d="M284.307 104.893C284.307 112.48 290.457 118.63 298.044 118.63C305.631 118.63 311.781 112.48 311.781 104.893C311.781 97.3066 305.631 91.1562 298.044 91.1562C290.457 91.1562 284.307 97.3066 284.307 104.893Z" fill="#4A9C3B"/>
<path d="M512.001 256C512.001 222.616 484.937 195.552 451.554 195.552H357.837V316.445H451.554C484.937 316.447 512.001 289.383 512.001 256Z" fill="#3FAE2A"/>
<path d="M426.199 316.447C426.199 328.786 436.202 338.789 448.541 338.789C460.879 338.789 470.882 328.786 470.882 316.447C470.882 304.109 460.879 294.106 448.541 294.106C436.202 294.106 426.199 304.109 426.199 316.447Z" fill="white"/>
<path d="M437.371 316.447C437.371 322.616 442.372 327.617 448.541 327.617C454.71 327.617 459.71 322.616 459.71 316.447C459.71 310.278 454.71 305.278 448.541 305.278C442.372 305.278 437.371 310.278 437.371 316.447Z" fill="#5F4637"/>
<path d="M426.199 195.552C426.199 207.891 436.202 217.894 448.541 217.894C460.879 217.894 470.882 207.891 470.882 195.552C470.882 183.214 460.879 173.211 448.541 173.211C436.202 173.211 426.199 183.214 426.199 195.552Z" fill="white"/>
<path d="M437.371 195.553C437.371 201.721 442.372 206.722 448.541 206.722C454.71 206.722 459.71 201.721 459.71 195.553C459.71 189.384 454.71 184.383 448.541 184.383C442.372 184.383 437.371 189.384 437.371 195.553Z" fill="#5F4637"/>
<path d="M406.159 288.408C406.159 291.888 408.981 294.709 412.461 294.709C415.941 294.709 418.762 291.888 418.762 288.408C418.762 284.928 415.941 282.106 412.461 282.106C408.981 282.106 406.159 284.928 406.159 288.408Z" fill="#4A9C3B"/>
<path d="M398.724 231.631C398.724 239.218 404.874 245.368 412.461 245.368C420.047 245.368 426.198 239.218 426.198 231.631C426.198 224.044 420.047 217.894 412.461 217.894C404.874 217.894 398.724 224.044 398.724 231.631Z" fill="#4A9C3B"/>
<path d="M433.41 267.09C433.41 277.488 441.839 285.918 452.237 285.918C462.636 285.918 471.065 277.488 471.065 267.09C471.065 256.692 462.636 248.263 452.237 248.263C441.839 248.263 433.41 256.692 433.41 267.09Z" fill="#4A9C3B"/>
<path d="M53.6056 256C53.6056 179.943 115.26 118.285 191.319 118.285H258.389C334.446 118.285 396.104 179.941 396.104 256C396.104 332.057 334.448 393.715 258.389 393.715H191.319C115.26 393.715 53.6056 332.057 53.6056 256Z" fill="#A75A29"/>
<path d="M79.6825 256C79.6825 194.443 129.762 144.364 191.317 144.364H258.387C319.945 144.364 370.023 194.443 370.023 255.998C370.023 317.554 319.945 367.634 258.387 367.634H191.317C129.762 367.634 79.6825 317.556 79.6825 256Z" fill="#E89E6C"/>
<path d="M170.308 256C170.308 286.125 194.729 310.545 224.854 310.545C254.979 310.545 279.399 286.125 279.399 256C279.399 225.875 254.979 201.454 224.854 201.454C194.729 201.454 170.308 225.875 170.308 256Z" fill="#BD8158"/>
<path d="M229.244 367.634V144.364H220.464V367.634H229.244Z" fill="#BD8158"/>
<path d="M289.578 179.664C302.327 179.664 313.463 172.884 319.668 162.755C302.062 151.147 281.009 144.365 258.387 144.365H254.278C254.28 163.858 270.085 179.664 289.578 179.664ZM195.426 144.364H191.317C168.698 144.364 147.642 151.145 130.038 162.753C136.243 172.882 147.379 179.662 160.127 179.662C179.622 179.664 195.426 163.858 195.426 144.364ZM299.489 255.998C299.489 287.94 313.927 316.499 336.618 335.541C357.22 315.277 370.023 287.11 370.023 255.998C370.023 224.888 357.218 196.721 336.618 176.455C313.925 195.499 299.489 224.058 299.489 255.998ZM319.668 349.247C313.463 339.118 302.327 332.338 289.578 332.338C270.084 332.338 254.278 348.141 254.278 367.636H258.387C281.009 367.634 302.062 360.855 319.668 349.247ZM160.127 332.336C147.379 332.336 136.243 339.116 130.038 349.245C147.642 360.853 168.698 367.634 191.317 367.634H195.426C195.426 348.141 179.622 332.336 160.127 332.336ZM150.218 255.998C150.218 224.058 135.781 195.499 113.088 176.455C92.4862 196.721 79.6825 224.886 79.6825 255.998C79.6825 287.11 92.488 315.275 113.088 335.541C135.783 316.499 150.218 287.94 150.218 255.998Z" fill="#BD8158"/>
</g>
<defs>
<clipPath id="clip0_23_331">
<rect width="512" height="512" fill="white" transform="translate(512.001) rotate(90)"/>
</clipPath>
</defs>
</svg>
