<svg width="512" height="512" viewBox="0 0 512 512" fill="none" xmlns="http://www.w3.org/2000/svg">
<g clip-path="url(#clip0_23_385)">
<path d="M78.4902 211.442C78.4902 312.458 160.379 394.348 261.395 394.348H329.095C430.111 394.348 512 312.458 512 211.442H78.4902V211.442Z" fill="#7D868C"/>
<path d="M475.482 211.442C455.083 290.191 383.542 348.349 298.412 348.349H230.712C177.179 348.349 129.019 325.347 95.5703 288.691C124.691 351.096 187.987 394.347 261.395 394.347H329.095C430.111 394.347 512 312.457 512 211.441H475.482V211.442Z" fill="#C3C6C8"/>
<path d="M381.94 303.429C394.789 303.429 405.206 293.012 405.206 280.162C405.206 267.312 394.789 256.896 381.94 256.896C369.09 256.896 358.673 267.312 358.673 280.162C358.673 293.012 369.09 303.429 381.94 303.429Z" fill="white"/>
<path d="M381.938 291.795C388.363 291.795 393.571 286.587 393.571 280.162C393.571 273.738 388.363 268.53 381.938 268.53C375.514 268.53 370.306 273.738 370.306 280.162C370.306 286.587 375.514 291.795 381.938 291.795Z" fill="#375D9D"/>
<path d="M354.108 211.442C354.108 217.218 358.79 221.902 364.568 221.902C370.345 221.902 375.029 217.22 375.029 211.442H354.108Z" fill="#5C6670"/>
<path d="M17.8189 117.652H0.000976562V154.788C0.000976562 186.076 25.3654 211.441 56.6537 211.441H78.4902V178.322C78.4902 144.816 51.3262 117.652 17.8189 117.652Z" fill="#5C6670"/>
<path d="M56.6537 211.442C25.3654 211.442 0.000976562 236.806 0.000976562 268.095V305.232H17.8189C51.3262 305.232 78.4902 278.068 78.4902 244.561V211.442H56.6537Z" fill="#5C6670"/>
<path d="M270.992 291.795C237.483 291.795 210.32 318.958 210.32 352.466V370.284H225.621C268.969 370.284 304.11 335.144 304.11 291.795H270.992V291.795Z" fill="#5C6670"/>
<path d="M363.006 215.599C360.71 215.599 358.848 213.738 358.848 211.442V189.498C358.848 178.387 349.809 169.349 338.697 169.349C333.315 169.349 328.255 171.444 324.448 175.25C322.824 176.873 320.192 176.873 318.568 175.249C316.945 173.625 316.945 170.993 318.569 169.369C323.947 163.994 331.095 161.034 338.697 161.034C354.394 161.034 367.163 173.803 367.163 189.498V211.442C367.163 213.737 365.302 215.599 363.006 215.599Z" fill="#00B3E3"/>
<path d="M363.006 215.599C360.71 215.599 358.848 213.738 358.848 211.442V159.589C358.848 143.894 371.619 131.125 387.315 131.125C394.918 131.125 402.066 134.085 407.444 139.46C409.067 141.084 409.067 143.716 407.445 145.34C405.821 146.965 403.189 146.962 401.565 145.342C397.758 141.536 392.696 139.44 387.315 139.44C376.204 139.44 367.163 148.479 367.163 159.589V211.441C367.163 213.737 365.302 215.599 363.006 215.599Z" fill="#0082CA"/>
<path d="M363.006 215.599C360.71 215.599 358.848 213.738 358.848 211.442V188.485C358.848 172.79 371.619 160.021 387.315 160.021C389.611 160.021 391.473 161.882 391.473 164.178C391.473 166.474 389.611 168.336 387.315 168.336C376.204 168.336 367.163 177.375 367.163 188.485V211.442C367.163 213.737 365.302 215.599 363.006 215.599Z" fill="#00B3E3"/>
</g>
<defs>
<clipPath id="clip0_23_385">
<rect width="512" height="512" fill="white" transform="translate(0.000976562)"/>
</clipPath>
</defs>
</svg>
