<svg width="512" height="512" viewBox="0 0 512 512" fill="none" xmlns="http://www.w3.org/2000/svg">
<g clip-path="url(#clip0_23_133)">
<path d="M122.221 210.442L109.995 198.215C82.9965 171.217 82.9965 127.444 109.995 100.445L122.221 88.2191L134.448 100.445C161.446 127.444 161.446 171.217 134.448 198.215L122.221 210.442Z" fill="#F9D43A"/>
<path d="M122.221 210.442L109.995 222.668C82.9965 249.666 39.2237 249.666 12.2252 222.668L0 210.442L12.2263 198.215C39.2248 171.217 82.9976 171.217 109.996 198.215L122.221 210.442Z" fill="#F9D43A"/>
<path d="M503.278 224.679C500.276 227.681 495.409 227.681 492.406 224.679C489.405 221.678 489.405 216.811 492.406 213.808L503.334 202.881H114.641C114.641 275.767 153.845 339.501 212.324 374.142C241.977 391.705 276.58 401.78 313.539 401.78C316.937 401.78 320.324 401.694 323.685 401.524C358.811 399.752 391.535 388.877 419.536 371.193C471.897 338.165 507.755 281.363 512 215.957L503.278 224.679Z" fill="#F9993A"/>
<path d="M503.278 224.679C500.276 227.681 495.409 227.681 492.406 224.679C489.405 221.678 489.405 216.811 492.406 213.808L503.337 202.877H387.173C382.97 218.946 380.748 235.799 380.748 253.179C380.748 297.368 395.151 338.183 419.538 371.19C471.891 338.159 507.748 281.366 511.996 215.962L503.278 224.679Z" fill="#F9D43A"/>
<path d="M440.723 274.978C454.884 274.978 466.364 263.498 466.364 249.337C466.364 235.176 454.884 223.696 440.723 223.696C426.561 223.696 415.082 235.176 415.082 249.337C415.082 263.498 426.561 274.978 440.723 274.978Z" fill="white"/>
<path d="M440.723 265.025C449.387 265.025 456.411 258.001 456.411 249.337C456.411 240.673 449.387 233.649 440.723 233.649C432.058 233.649 425.034 240.673 425.034 249.337C425.034 258.001 432.058 265.025 440.723 265.025Z" fill="#4D4D4D"/>
<path d="M249.911 202.877H311.884V182.59C311.884 163.114 296.097 147.327 276.622 147.327H209.929V162.896C209.929 184.976 227.83 202.877 249.911 202.877Z" fill="#F9D43A"/>
<path d="M271.903 423.781H209.93V403.493C209.93 384.018 225.717 368.231 245.192 368.231H311.885V383.799C311.885 405.88 293.984 423.781 271.903 423.781Z" fill="#F9D43A"/>
</g>
<defs>
<clipPath id="clip0_23_133">
<rect width="512" height="512" fill="white"/>
</clipPath>
</defs>
</svg>
