<svg width="1845" height="1845" viewBox="0 0 1845 1845" fill="none" xmlns="http://www.w3.org/2000/svg">
<path d="M922.5 1845C413.835 1845 -0.000198225 1431.17 -0.000198225 922.5C-0.000198225 413.835 413.835 0 922.5 0C1431.16 0 1845 413.835 1845 922.5C1845 1431.17 1431.16 1845 922.5 1845ZM922.5 68.3335C451.509 68.3335 68.3333 451.51 68.3333 922.5C68.3333 1393.49 451.509 1776.67 922.5 1776.67C1393.49 1776.67 1776.67 1393.49 1776.67 922.5C1776.67 451.506 1393.49 68.3335 922.5 68.3335Z" fill="#D5DCED"/>
<path d="M1844.06 911.025C1838.6 877.426 1807.05 854.169 1773.01 854.169H1735.74C1718.34 854.169 1704.14 841.016 1701.97 823.752C1657.45 468.758 1376.24 187.554 1021.25 143.029C1003.99 140.867 990.835 126.662 990.835 109.267V71.9891C990.835 37.9503 967.575 6.40145 933.982 0.934912C891.169 -6.02709 854.168 26.8298 854.168 68.3315V109.26C854.168 126.654 841.015 140.86 823.751 143.025C468.756 187.554 187.551 468.762 143.026 823.752C140.861 841.009 126.655 854.165 109.261 854.165H71.9899C37.951 854.165 6.40208 877.426 0.935529 911.022C-6.03009 953.831 26.8305 990.832 68.3287 990.832H109.258C126.652 990.832 140.857 1003.99 143.023 1021.25C187.548 1376.24 468.753 1657.45 823.747 1701.97C841.004 1704.14 854.164 1718.34 854.164 1735.74V1773.01C854.164 1807.05 877.425 1838.6 911.021 1844.07C953.831 1851.02 990.832 1818.16 990.832 1776.66V1735.73C990.832 1718.34 1003.98 1704.13 1021.25 1701.97C1376.24 1657.44 1657.45 1376.23 1701.97 1021.24C1704.14 1003.98 1718.34 990.825 1735.74 990.825H1776.67C1818.17 990.832 1851.03 953.835 1844.06 911.025ZM922.498 1366.66C677.195 1366.66 478.331 1167.8 478.331 922.499C478.331 677.193 677.192 478.333 922.498 478.333C1167.8 478.333 1366.67 677.189 1366.67 922.499C1366.67 1167.81 1167.8 1366.66 922.498 1366.66Z" fill="#E4EAF8"/>
<path d="M307.596 922.499C307.596 515.384 617.284 180.596 1014 140.672C1000.73 135.843 991.146 123.923 991.146 109.264V71.9891C991.146 37.9503 967.878 6.40145 934.275 0.934912C891.448 -6.02709 854.435 26.8298 854.435 68.3315V109.26C854.435 126.654 841.278 140.86 824.008 143.025C468.905 187.554 187.611 468.762 143.072 823.752C140.905 841.009 126.696 854.165 109.296 854.165H72.0127C37.963 854.165 6.40381 877.426 0.935529 911.022C-6.0323 953.831 26.839 990.832 68.3504 990.832H109.292C126.692 990.832 140.902 1003.99 143.068 1021.25C187.607 1376.24 468.901 1657.45 824.008 1701.97C841.271 1704.14 854.435 1718.34 854.435 1735.74V1773.01C854.435 1807.05 877.704 1838.6 911.31 1844.07C954.133 1851.02 991.146 1818.16 991.146 1776.66V1735.73C991.146 1721.07 1000.72 1709.16 1013.99 1704.32C617.277 1664.4 307.596 1329.61 307.596 922.499Z" fill="#D5DCED"/>
<path d="M1264.8 413.537C1257.09 413.537 1249.32 411.468 1242.28 407.097C1231.64 400.492 1220.79 394.186 1209.72 388.211C1188.97 377.019 1181.22 351.109 1192.4 330.353C1203.61 309.6 1229.44 301.824 1250.29 313.035C1262.9 319.842 1275.28 327.013 1287.4 334.555C1307.42 347.001 1313.55 373.343 1301.11 393.378C1293.03 406.398 1279.08 413.537 1264.8 413.537Z" fill="white"/>
<path d="M1489.92 649.516C1474.94 649.516 1460.39 641.625 1452.58 627.611C1423.72 575.842 1387.42 528.597 1344.78 487.207C1327.83 470.789 1327.43 443.748 1343.84 426.812C1360.26 409.911 1387.35 409.475 1404.24 425.911C1452.89 473.092 1494.26 526.957 1527.19 585.997C1538.67 606.584 1531.3 632.609 1510.71 644.1C1504.1 647.783 1496.96 649.516 1489.92 649.516Z" fill="white"/>
<path d="M1675.76 1145.69C1687.67 1105.44 1696.62 1063.91 1701.97 1021.25C1704.14 1003.99 1718.34 990.83 1735.73 990.83H1776.67C1818.16 990.83 1851.03 953.833 1844.06 911.019C1838.6 877.42 1807.05 854.163 1773.01 854.163H1735.74C1718.35 854.163 1704.14 841.01 1701.98 823.746C1696.63 781.08 1687.67 739.56 1675.77 699.305L1348.23 796.355C1360.07 836.376 1366.67 878.645 1366.67 922.5C1366.67 966.358 1360.07 1008.62 1348.23 1048.64L1675.76 1145.69Z" fill="#FF5050"/>
<path d="M169.243 699.313C157.337 739.561 148.386 781.088 143.035 823.754C140.866 841.018 126.664 854.171 109.266 854.171H68.3339C26.8359 854.171 -6.0282 891.168 0.937395 933.982C6.40393 967.581 37.9527 990.838 71.9915 990.838H109.263C126.657 990.838 140.862 1003.99 143.028 1021.26C148.379 1063.92 157.334 1105.44 169.236 1145.7L496.77 1048.65C484.933 1008.63 478.335 966.359 478.335 922.508C478.335 878.65 484.933 836.384 496.778 796.37L169.243 699.313Z" fill="#FF5050"/>
<path d="M699.313 1675.76C739.561 1687.67 781.088 1696.62 823.754 1701.97C841.018 1704.14 854.171 1718.34 854.171 1735.73V1776.67C854.171 1818.16 891.168 1851.03 933.982 1844.06C967.581 1838.6 990.834 1807.05 990.834 1773.01V1735.74C990.834 1718.35 1003.99 1704.14 1021.25 1701.98C1063.92 1696.63 1105.44 1687.67 1145.69 1675.77L1048.64 1348.23C1008.63 1360.07 966.359 1366.67 922.508 1366.67C878.65 1366.67 836.384 1360.07 796.37 1348.23L699.313 1675.76Z" fill="#FF5050"/>
<path d="M1145.69 169.24C1105.44 157.334 1063.91 148.382 1021.25 143.031C1003.99 140.862 990.834 126.66 990.834 109.263V68.3339C990.834 26.8358 953.837 -6.02825 911.024 0.937349C877.424 6.40388 854.167 37.9527 854.167 71.9915V109.263C854.167 126.657 841.014 140.862 823.75 143.028C781.084 148.379 739.565 157.334 699.31 169.236L796.36 496.77C836.377 484.933 878.646 478.335 922.497 478.335C966.356 478.335 1008.62 484.933 1048.63 496.777L1145.69 169.24Z" fill="#FF5050"/>
<path d="M307.503 922.501C307.503 861.868 314.602 802.922 327.6 746.235L169.243 699.317C157.337 739.565 148.386 781.092 143.035 823.757C140.869 841.014 126.664 854.171 109.27 854.171L68.3339 854.171C26.8359 854.171 -6.0282 891.168 0.937395 933.982C6.40393 967.581 37.9527 990.838 71.9951 990.838H109.266C126.66 990.838 140.866 1003.99 143.031 1021.25C148.382 1063.92 157.337 1105.44 169.24 1145.7L327.592 1098.78C314.602 1042.08 307.503 983.133 307.503 922.501Z" fill="#C84146"/>
<path d="M1013.68 140.674C1000.41 135.846 990.834 123.925 990.834 109.263V68.3339C990.834 26.8358 953.837 -6.02825 911.024 0.937349C877.424 6.40388 854.167 37.9527 854.167 71.9915V109.263C854.167 126.657 841.014 140.862 823.75 143.028C781.084 148.379 739.565 157.334 699.31 169.236L717.904 231.998C807.405 183.246 907.413 151.373 1013.68 140.674Z" fill="#C84146"/>
<path d="M717.908 1613L699.313 1675.75C739.561 1687.66 781.088 1696.61 823.754 1701.96C841.011 1704.13 854.171 1718.33 854.171 1735.73V1776.66C854.171 1818.15 891.168 1851.02 933.982 1844.05C967.581 1838.59 990.834 1807.04 990.834 1773V1735.73C990.834 1721.07 1000.41 1709.16 1013.67 1704.32C907.406 1693.63 807.394 1661.76 717.908 1613Z" fill="#C84146"/>
<path d="M1162.36 1053.24V888.174L1175.69 884.135L1189.32 890.4L1199.61 944.468L1188.51 1001.72L1169.76 1043.7L1162.36 1053.24Z" fill="white"/>
<path fill-rule="evenodd" clip-rule="evenodd" d="M1149.97 857.641L1147.12 888.174L1149.97 937.789L1142.35 967.368L1144.26 1015.08L1136.64 1067.55L1118.54 1108.58L1089.97 1126.71L1072.82 1152.47L1051.87 1177.28L1024.25 1172.51L988.052 1177.28L954.715 1167.74V1137.21L978.527 1112.4H888.993L866.134 1126.71L886.136 1152.47L873.753 1172.51L831.844 1191.59L820.414 1167.74L772.79 1157.24L747.073 1145.79L717.546 1112.4L702.306 1073.28V1029.39L698.496 994.084L700.401 953.056L698.496 916.798L702.306 884.357V848.099L714.688 850.962V881.495L721.356 940.652L742.31 958.78L788.03 966.414L840.416 961.643L875.658 940.652L888.993 909.165L905.186 868.137L921.378 860.503L940.428 868.137L947.095 892.944L954.715 922.523L970.907 937.789L995.672 958.78L1031.87 972.139H1066.16L1101.4 966.414L1121.4 949.239L1130.92 912.981L1133.78 870.999V857.641H1149.97ZM875.658 1013.17L908.995 1020.8H934.713L947.095 1013.17H970.907L988.052 1020.8L1002.34 1035.11H1021.39L1047.11 1059.92V1085.68L1034.72 1103.81L1014.72 1085.68L1002.34 1067.55L982.337 1059.92L967.097 1053.24L940.428 1048.47H908.995L905.186 1053.24L875.658 1067.55L860.419 1053.24C853.116 1059.92 837.178 1074.23 831.844 1078.05C826.51 1081.87 808.032 1094.91 799.459 1100.95H784.22L788.03 1073.28L811.842 1053.24L827.082 1043.7L860.419 1029.39L875.658 1013.17Z" fill="white"/>
<path fill-rule="evenodd" clip-rule="evenodd" d="M721.356 830.925L702.306 836.65L708.973 794.667V769.859L720.403 714.519L742.31 677.307L779.457 641.05L799.459 628.646L828.034 618.15L861.371 614.334L889.946 607.655H934.713L976.622 633.417L1048.06 646.775L1059.49 673.491L1089.97 689.711L1115.69 694.482L1145.21 728.831V747.914L1142.35 757.456L1145.21 776.539L1142.35 796.576V808.025L1149.97 826.154V843.329L1124.26 837.604L1073.78 826.154H1008.05L958.525 837.604L949.952 843.329H896.613L869.944 830.925L837.559 823.292H796.602L742.31 827.108L721.356 830.925ZM963.287 799.438L961.382 785.126L974.717 769.859H1007.1L1015.67 764.135L1046.15 769.859L1052.82 774.63L1078.54 779.401L1100.45 797.53L1119.5 812.796L1124.26 819.475L1097.59 815.659L1066.16 805.163H1039.49L999.482 803.255L981.384 805.163L963.287 799.438ZM898.518 788.942L896.613 803.255L878.516 808.979L860.419 807.071L820.414 808.979H793.745L762.312 819.475L735.643 823.292L740.405 816.613L759.455 801.346L781.362 783.218L807.079 778.447L813.747 773.676L844.226 767.951L852.799 773.676H885.183L898.518 788.942Z" fill="white"/>
<path d="M876.611 839.512L892.803 857.641L893.756 864.32L892.803 877.678L870.896 927.294L860.419 939.698L838.511 953.056L799.459 959.735L762.312 955.918L735.643 944.468L724.213 927.294L723.261 888.174L728.023 846.191L740.405 834.741L785.172 828.062H828.034L844.226 829.971L876.611 839.512Z" fill="white"/>
<path d="M954.715 878.632L953.762 858.595L959.477 847.145L974.717 838.558L1007.1 831.879L1037.58 830.925L1084.25 835.696L1103.3 840.466L1122.35 851.916V877.678L1123.31 913.936L1116.64 943.514L1100.45 958.78L1071.87 965.459L1034.72 966.414L1010.91 959.735L987.099 945.422L974.717 929.202L967.097 908.211L954.715 878.632Z" fill="white"/>
<path fill-rule="evenodd" clip-rule="evenodd" d="M922 1412C1192.07 1412 1411 1193.07 1411 923C1411 652.933 1192.07 434 922 434C651.933 434 433 652.933 433 923C433 1193.07 651.933 1412 922 1412ZM685.161 1039.88V904.394L689.923 881.495L680.399 830.925L668.016 803.255V744.098L673.731 703.069L698.496 652.5V624.829L720.403 606.701L753.74 588.572L773.742 581.893L786.125 558.039L814.699 544.681L893.756 512.24H944.237L1010.91 526.552L1112.83 568.535L1165.21 640.096L1180.45 694.482L1194.74 728.831L1190.93 810.888L1172.83 850.962V867.182L1162.36 888.174L1175.69 881.495L1190.93 888.174L1202.36 944.468L1190.93 1001.72L1175.69 1043.7L1162.36 1053.24L1155.69 1070.42L1149.97 1103.81L1131.88 1131.48L1118.54 1173.46L1111.88 1208.77L1094.73 1220.22L1089.97 1228.8L1078.54 1232.62V1241.21L1072.82 1268.88L1055.68 1278.42L1034.72 1294.64H1021.39L1004.24 1318.49L969.955 1333.76L943.285 1323.26L920.425 1333.76L850.894 1323.26L823.272 1307.04H811.842L806.127 1294.64L772.79 1287.96L768.98 1268.88L732.785 1245.02L717.546 1208.77L702.306 1167.74L689.923 1119.08L685.161 1039.88ZM685.161 904.394L676.589 892.944L664.206 900.578L654.681 929.202V954.964L659.444 989.313L664.206 1013.17L672.779 1035.11L685.161 1039.88L676.589 1029.39L667.721 1013.17L664.206 989.313L659.444 955.461V929.822L667.721 904.394L676.589 900.578L685.161 904.394Z" fill="white"/>
</svg>
