<svg width="539" height="539" viewBox="0 0 539 539" fill="none" xmlns="http://www.w3.org/2000/svg">
<path fill-rule="evenodd" clip-rule="evenodd" d="M354.719 240.241L354.719 441.95C354.719 449.757 351.537 456.842 346.41 461.968C341.284 467.095 334.205 470.27 326.399 470.27L212.534 470.277C204.975 470.27 197.854 467.321 192.508 461.975C187.156 456.623 184.214 449.509 184.207 441.95L184.214 412.188L184.207 396.483L184.214 219.53C184.214 199.462 195.033 180.794 212.456 170.824C225.212 163.513 233.146 149.837 233.146 135.129L233.146 121.963L230.501 121.963C226.365 121.97 223.006 118.611 223.006 114.468L223.006 76.2698C222.999 72.1333 226.358 68.7745 230.501 68.7745L238.392 68.7745L234.546 39.0477C234.27 36.9052 234.928 34.7485 236.356 33.1363C237.77 31.51 239.828 30.5837 241.992 30.5837L296.941 30.5907C299.098 30.5837 301.148 31.517 302.577 33.1292C303.998 34.7485 304.655 36.9052 304.38 39.0477L300.533 68.7745L308.424 68.7745C312.568 68.7745 315.927 72.1333 315.927 76.2769L315.92 114.468C315.927 116.54 315.085 118.413 313.728 119.771C312.37 121.129 310.496 121.97 308.424 121.963H305.78V135.129C305.78 149.837 313.713 163.513 326.47 170.824C343.893 180.794 354.712 199.462 354.712 219.53L354.712 222.74L354.719 240.241ZM288.406 45.5885L285.415 68.7745L253.517 68.7816L250.519 45.5885L288.406 45.5885ZM300.922 83.7722L300.922 106.965L238.004 106.965L238.004 83.7722L300.922 83.7722ZM290.782 121.97L290.782 135.136C290.782 155.204 301.601 173.872 319.024 183.842C331.787 191.146 339.714 204.829 339.714 219.537L339.721 234.619L339.714 269.345L339.714 441.95C339.721 445.507 338.328 448.851 335.811 451.369C333.293 453.886 329.956 455.272 326.392 455.272L212.534 455.272C208.977 455.265 205.632 453.886 203.115 451.369C200.598 448.851 199.219 445.507 199.212 441.95L199.212 407.585V388.408L199.212 219.537C199.212 208.492 203.674 198.048 211.296 190.425C213.835 187.887 216.72 185.666 219.902 183.842C237.325 173.872 248.143 155.204 248.143 135.136L248.143 121.97H290.782Z" fill="#4D4D4D"/>
<path d="M288.406 45.5883L285.415 68.7743L253.517 68.7814L250.519 45.5883L288.406 45.5883Z" fill="#E0974F"/>
</svg>
