<svg width="512" height="512" viewBox="0 0 512 512" fill="none" xmlns="http://www.w3.org/2000/svg">
<path fill-rule="evenodd" clip-rule="evenodd" d="M502.454 256C502.454 392.113 392.112 502.455 255.999 502.455C119.886 502.455 9.54395 392.113 9.54395 256C9.54395 119.887 119.886 9.54504 255.999 9.54504C392.112 9.54504 502.454 119.887 502.454 256ZM128 128H384C401.594 128 416 142.406 416 160V352C416 369.594 401.594 384 384 384H128C110.398 384 96 369.594 96 352V160C96 142.406 110.398 128 128 128ZM384 352H352V211.203L256 272L160 211.203V352H128V160H147.203L256 227.203L364.797 160H384V352Z" fill="black"/>
</svg>
