<?xml version="1.0" encoding="iso-8859-1"?>
<!-- Generator: Adobe Illustrator 19.0.0, SVG Export Plug-In . SVG Version: 6.00 Build 0)  -->
<svg version="1.1" id="Layer_1" xmlns="http://www.w3.org/2000/svg" xmlns:xlink="http://www.w3.org/1999/xlink" x="0px" y="0px"
	 viewBox="0 0 512.001 512.001" style="enable-background:new 0 0 512.001 512.001;" xml:space="preserve">
<path style="fill:#D5DCED;" d="M256,512C114.842,512,0,397.158,0,256S114.842,0,256,0s256,114.842,256,256S397.157,512,256,512z
	 M256,18.963C125.297,18.963,18.963,125.297,18.963,256S125.297,493.037,256,493.037S493.037,386.704,493.037,256
	S386.704,18.963,256,18.963z"/>
<path style="fill:#E4EAF8;" d="M511.74,252.816c-1.517-9.324-10.272-15.778-19.718-15.778h-10.343c-4.827,0-8.769-3.65-9.37-8.441
	c-12.356-98.513-90.392-176.549-188.905-188.905c-4.789-0.6-8.44-4.542-8.44-9.369V19.978c0-9.446-6.455-18.201-15.777-19.718
	c-11.881-1.932-22.149,7.186-22.149,18.703v11.358c0,4.827-3.65,8.769-8.441,9.37C130.084,52.048,52.048,130.085,39.692,228.597
	c-0.601,4.789-4.543,8.44-9.37,8.44H19.979c-9.446,0-18.201,6.455-19.718,15.778c-1.933,11.88,7.186,22.148,18.702,22.148h11.358
	c4.827,0,8.769,3.65,9.37,8.441c12.356,98.511,90.392,176.549,188.905,188.905c4.789,0.601,8.441,4.543,8.441,9.37v10.344
	c0,9.446,6.455,18.201,15.778,19.718c11.88,1.931,22.148-7.188,22.148-18.705v-11.359c0-4.827,3.65-8.769,8.441-9.37
	c98.513-12.356,176.549-90.393,188.905-188.905c0.601-4.79,4.543-8.441,9.37-8.441h11.358
	C504.554,274.963,513.673,264.696,511.74,252.816z M256,379.259c-68.073,0-123.259-55.185-123.259-123.259
	S187.926,132.741,256,132.741S379.26,187.925,379.26,256S324.074,379.259,256,379.259z"/>
<path style="fill:#D5DCED;" d="M85.334,256c0-112.977,85.913-205.883,195.969-216.962c-3.682-1.34-6.34-4.648-6.34-8.716V19.978
	c0-9.446-6.455-18.201-15.777-19.718c-11.881-1.932-22.149,7.186-22.149,18.703v11.358c0,4.827-3.65,8.769-8.441,9.37
	C130.084,52.048,52.048,130.085,39.692,228.597c-0.601,4.789-4.543,8.44-9.37,8.44H19.979c-9.446,0-18.201,6.455-19.718,15.778
	c-1.933,11.88,7.186,22.148,18.702,22.148h11.358c4.827,0,8.769,3.65,9.37,8.441c12.356,98.511,90.392,176.549,188.905,188.905
	c4.789,0.601,8.441,4.543,8.441,9.37v10.344c0,9.446,6.455,18.201,15.778,19.718c11.88,1.931,22.148-7.188,22.148-18.705v-11.359
	c0-4.068,2.656-7.374,6.338-8.716C171.245,461.882,85.334,368.975,85.334,256z"/>
<g>
	<path style="fill:#FFFFFF;" d="M350.991,114.759c-2.139,0-4.296-0.574-6.249-1.787c-2.953-1.833-5.963-3.583-9.037-5.241
		c-5.759-3.106-7.908-10.296-4.806-16.056c3.111-5.759,10.278-7.917,16.065-4.806c3.5,1.889,6.936,3.879,10.297,5.972
		c5.556,3.454,7.259,10.764,3.806,16.324C358.825,112.778,354.954,114.759,350.991,114.759z"/>
	<path style="fill:#FFFFFF;" d="M413.463,180.245c-4.158,0-8.194-2.19-10.361-6.079c-8.009-14.366-18.084-27.477-29.916-38.963
		c-4.704-4.556-4.815-12.06-0.26-16.76c4.556-4.69,12.073-4.811,16.76-0.25c13.5,13.093,24.981,28.041,34.12,44.425
		c3.186,5.713,1.139,12.935-4.574,16.124C417.399,179.764,415.417,180.245,413.463,180.245z"/>
</g>
<g>
	<path style="fill:#FF5050;" d="M465.035,317.936c3.304-11.169,5.788-22.693,7.273-34.533c0.601-4.79,4.543-8.441,9.37-8.441h11.359
		c11.516,0,20.636-10.267,18.703-22.148c-1.517-9.324-10.272-15.778-19.718-15.778H481.68c-4.827,0-8.769-3.65-9.37-8.441
		c-1.485-11.84-3.97-23.362-7.273-34.533l-90.893,26.932c3.284,11.106,5.116,22.836,5.116,35.006c0,12.171-1.831,23.9-5.118,35.004
		L465.035,317.936z"/>
	<path style="fill:#FF5050;" d="M46.966,194.064c-3.304,11.169-5.788,22.693-7.273,34.533c-0.602,4.791-4.543,8.441-9.371,8.441
		H18.963c-11.516,0-20.636,10.267-18.703,22.148c1.517,9.324,10.272,15.778,19.718,15.778h10.343c4.827,0,8.769,3.65,9.37,8.441
		c1.485,11.84,3.97,23.362,7.273,34.533l90.893-26.932c-3.285-11.105-5.116-22.835-5.116-35.004c0-12.171,1.831-23.9,5.118-35.004
		L46.966,194.064z"/>
	<path style="fill:#FF5050;" d="M194.064,465.035c11.169,3.304,22.693,5.788,34.533,7.273c4.791,0.601,8.441,4.543,8.441,9.37
		v11.359c0,11.516,10.267,20.636,22.148,18.703c9.324-1.517,15.777-10.272,15.777-19.718V481.68c0-4.827,3.65-8.769,8.441-9.37
		c11.84-1.485,23.362-3.97,34.533-7.273l-26.932-90.893c-11.104,3.284-22.834,5.116-35.003,5.116c-12.171,0-23.9-1.831-35.004-5.118
		L194.064,465.035z"/>
	<path style="fill:#FF5050;" d="M317.936,46.965c-11.169-3.304-22.693-5.788-34.533-7.273c-4.789-0.602-8.44-4.543-8.44-9.371
		V18.963c0-11.516-10.267-20.636-22.148-18.703c-9.324,1.517-15.778,10.272-15.778,19.718v10.343c0,4.827-3.65,8.769-8.441,9.37
		c-11.84,1.485-23.362,3.97-34.533,7.273l26.932,90.893c11.105-3.285,22.835-5.116,35.004-5.116c12.171,0,23.9,1.831,35.004,5.118
		L317.936,46.965z"/>
</g>
<g>
	<path style="fill:#C84146;" d="M85.334,256c0-16.826,1.97-33.184,5.577-48.915l-43.945-13.02
		c-3.304,11.169-5.788,22.693-7.273,34.533c-0.601,4.789-4.543,8.44-9.37,8.44H18.963c-11.516,0-20.636,10.267-18.703,22.148
		c1.517,9.324,10.272,15.778,19.719,15.778h10.343c4.827,0,8.769,3.65,9.37,8.441c1.485,11.84,3.97,23.362,7.273,34.533
		l43.944-13.02C87.304,289.183,85.334,272.826,85.334,256z"/>
	<path style="fill:#C84146;" d="M281.303,39.038c-3.682-1.34-6.34-4.648-6.34-8.717V18.963c0-11.516-10.267-20.636-22.148-18.703
		c-9.324,1.517-15.778,10.272-15.778,19.718v10.343c0,4.827-3.65,8.769-8.441,9.37c-11.84,1.485-23.362,3.97-34.533,7.273
		l5.16,17.417C224.06,50.852,251.813,42.007,281.303,39.038z"/>
	<path style="fill:#C84146;" d="M199.224,447.617l-5.16,17.416c11.169,3.304,22.693,5.788,34.533,7.273
		c4.789,0.601,8.441,4.543,8.441,9.37v11.358c0,11.516,10.267,20.636,22.148,18.703c9.324-1.517,15.777-10.272,15.777-19.718
		v-10.343c0-4.068,2.657-7.374,6.337-8.716C251.811,469.994,224.057,461.149,199.224,447.617z"/>
</g>
<g>
</g>
<g>
</g>
<g>
</g>
<g>
</g>
<g>
</g>
<g>
</g>
<g>
</g>
<g>
</g>
<g>
</g>
<g>
</g>
<g>
</g>
<g>
</g>
<g>
</g>
<g>
</g>
<g>
</g>
</svg>
