<svg width="512" height="512" viewBox="0 0 512 512" fill="none" xmlns="http://www.w3.org/2000/svg">
<path d="M256 512C114.842 512 0 397.158 0 256C0 114.842 114.842 0 256 0C397.158 0 512 114.842 512 256C512 397.158 397.157 512 256 512ZM256 18.963C125.297 18.963 18.963 125.297 18.963 256C18.963 386.703 125.297 493.037 256 493.037C386.703 493.037 493.037 386.704 493.037 256C493.037 125.296 386.704 18.963 256 18.963Z" fill="#D5DCED"/>
<path d="M511.74 252.816C510.223 243.492 501.468 237.038 492.022 237.038H481.679C476.852 237.038 472.91 233.388 472.309 228.597C459.953 130.084 381.917 52.0481 283.404 39.6921C278.615 39.0921 274.964 35.1501 274.964 30.3231V19.9781C274.964 10.5321 268.509 1.77705 259.187 0.260054C247.306 -1.67195 237.038 7.44605 237.038 18.9631V30.3211C237.038 35.1481 233.388 39.0901 228.597 39.6911C130.084 52.0481 52.048 130.085 39.692 228.597C39.091 233.386 35.149 237.037 30.322 237.037H19.979C10.533 237.037 1.77801 243.492 0.261012 252.815C-1.67199 264.695 7.44701 274.963 18.963 274.963H30.321C35.148 274.963 39.09 278.613 39.691 283.404C52.047 381.915 130.083 459.953 228.596 472.309C233.385 472.91 237.037 476.852 237.037 481.679V492.023C237.037 501.469 243.492 510.224 252.815 511.741C264.695 513.672 274.963 504.553 274.963 493.036V481.677C274.963 476.85 278.613 472.908 283.404 472.307C381.917 459.951 459.953 381.914 472.309 283.402C472.91 278.612 476.852 274.961 481.679 274.961H493.037C504.554 274.963 513.673 264.696 511.74 252.816ZM256 379.259C187.927 379.259 132.741 324.074 132.741 256C132.741 187.926 187.926 132.741 256 132.741C324.074 132.741 379.26 187.925 379.26 256C379.26 324.075 324.074 379.259 256 379.259Z" fill="#E4EAF8"/>
<path d="M85.334 256C85.334 143.023 171.247 50.1171 281.303 39.0381C277.621 37.6981 274.963 34.3901 274.963 30.3221V19.9781C274.963 10.5321 268.508 1.77705 259.186 0.260054C247.305 -1.67195 237.037 7.44605 237.037 18.9631V30.3211C237.037 35.1481 233.387 39.0901 228.596 39.6911C130.084 52.0481 52.048 130.085 39.692 228.597C39.091 233.386 35.149 237.037 30.322 237.037H19.979C10.533 237.037 1.77801 243.492 0.261012 252.815C-1.67199 264.695 7.44701 274.963 18.963 274.963H30.321C35.148 274.963 39.09 278.613 39.691 283.404C52.047 381.915 130.083 459.953 228.596 472.309C233.385 472.91 237.037 476.852 237.037 481.679V492.023C237.037 501.469 243.492 510.224 252.815 511.741C264.695 513.672 274.963 504.553 274.963 493.036V481.677C274.963 477.609 277.619 474.303 281.301 472.961C171.245 461.882 85.334 368.975 85.334 256Z" fill="#D5DCED"/>
<path d="M350.991 114.759C348.852 114.759 346.695 114.185 344.742 112.972C341.789 111.139 338.779 109.389 335.705 107.731C329.946 104.625 327.797 97.4349 330.899 91.6749C334.01 85.9159 341.177 83.7579 346.964 86.8689C350.464 88.7579 353.9 90.7479 357.261 92.8409C362.817 96.2949 364.52 103.605 361.067 109.165C358.825 112.778 354.954 114.759 350.991 114.759Z" fill="white"/>
<path d="M413.463 180.245C409.305 180.245 405.269 178.055 403.102 174.166C395.093 159.8 385.018 146.689 373.186 135.203C368.482 130.647 368.371 123.143 372.926 118.443C377.482 113.753 384.999 113.632 389.686 118.193C403.186 131.286 414.667 146.234 423.806 162.618C426.992 168.331 424.945 175.553 419.232 178.742C417.399 179.764 415.417 180.245 413.463 180.245Z" fill="white"/>
<path d="M465.035 317.936C468.339 306.767 470.823 295.243 472.308 283.403C472.909 278.613 476.851 274.962 481.678 274.962H493.037C504.553 274.962 513.673 264.695 511.74 252.814C510.223 243.49 501.468 237.036 492.022 237.036H481.68C476.853 237.036 472.911 233.386 472.31 228.595C470.825 216.755 468.34 205.233 465.037 194.062L374.144 220.994C377.428 232.1 379.26 243.83 379.26 256C379.26 268.171 377.429 279.9 374.142 291.004L465.035 317.936Z" fill="#FF5050"/>
<path d="M46.966 194.064C43.662 205.233 41.178 216.757 39.693 228.597C39.091 233.388 35.15 237.038 30.322 237.038H18.963C7.44701 237.038 -1.67299 247.305 0.260013 259.186C1.77701 268.51 10.532 274.964 19.978 274.964H30.321C35.148 274.964 39.09 278.614 39.691 283.405C41.176 295.245 43.661 306.767 46.964 317.938L137.857 291.006C134.572 279.901 132.741 268.171 132.741 256.002C132.741 243.831 134.572 232.102 137.859 220.998L46.966 194.064Z" fill="#FF5050"/>
<path d="M194.064 465.035C205.233 468.339 216.757 470.823 228.597 472.308C233.388 472.909 237.038 476.851 237.038 481.678V493.037C237.038 504.553 247.305 513.673 259.186 511.74C268.51 510.223 274.963 501.468 274.963 492.022V481.68C274.963 476.853 278.613 472.911 283.404 472.31C295.244 470.825 306.766 468.34 317.937 465.037L291.005 374.144C279.901 377.428 268.171 379.26 256.002 379.26C243.831 379.26 232.102 377.429 220.998 374.142L194.064 465.035Z" fill="#FF5050"/>
<path d="M317.936 46.965C306.767 43.661 295.243 41.177 283.403 39.692C278.614 39.09 274.963 35.149 274.963 30.321V18.963C274.963 7.44701 264.696 -1.67299 252.815 0.260013C243.491 1.77701 237.037 10.532 237.037 19.978V30.321C237.037 35.148 233.387 39.09 228.596 39.691C216.756 41.176 205.234 43.661 194.063 46.964L220.995 137.857C232.1 134.572 243.83 132.741 255.999 132.741C268.17 132.741 279.899 134.572 291.003 137.859L317.936 46.965Z" fill="#FF5050"/>
<path d="M85.334 256C85.334 239.174 87.304 222.816 90.911 207.085L46.966 194.065C43.662 205.234 41.178 216.758 39.693 228.598C39.092 233.387 35.15 237.038 30.323 237.038H18.963C7.44701 237.038 -1.67299 247.305 0.260013 259.186C1.77701 268.51 10.532 274.964 19.979 274.964H30.322C35.149 274.964 39.091 278.614 39.692 283.405C41.177 295.245 43.662 306.767 46.965 317.938L90.909 304.918C87.304 289.183 85.334 272.826 85.334 256Z" fill="#C84146"/>
<path d="M281.303 39.038C277.621 37.698 274.963 34.39 274.963 30.321V18.963C274.963 7.44701 264.696 -1.67299 252.815 0.260013C243.491 1.77701 237.037 10.532 237.037 19.978V30.321C237.037 35.148 233.387 39.09 228.596 39.691C216.756 41.176 205.234 43.661 194.063 46.964L199.223 64.381C224.06 50.852 251.813 42.007 281.303 39.038Z" fill="#C84146"/>
<path d="M199.224 447.617L194.064 465.033C205.233 468.337 216.757 470.821 228.597 472.306C233.386 472.907 237.038 476.849 237.038 481.676V493.034C237.038 504.55 247.305 513.67 259.186 511.737C268.51 510.22 274.963 501.465 274.963 492.019V481.676C274.963 477.608 277.62 474.302 281.3 472.96C251.811 469.994 224.057 461.149 199.224 447.617Z" fill="#C84146"/>
<path d="M304.685 264.283C304.685 264.283 289.898 233.989 283.946 222.145C283.166 220.593 282.124 218.422 280.918 215.907C276.882 207.496 267.431 187.798 263.826 185.269C261.676 183.762 259.142 182.965 256.5 182.965C253.858 182.965 251.325 183.762 249.174 185.27C245.57 187.798 236.119 207.494 232.084 215.905C230.877 218.42 208.317 264.281 208.317 264.281L208.316 264.283C204.404 272.549 200.709 280.357 204.85 286.321C206.93 289.316 210.658 291.103 214.824 291.103C218.932 291.103 224.557 288.547 230.512 285.84L230.513 285.839L230.514 285.839C238.381 282.263 247.297 278.211 256.481 278.16H256.5H256.519C265.702 278.21 274.617 282.262 282.483 285.838L282.487 285.839C288.442 288.546 294.068 291.103 298.177 291.103C302.342 291.103 306.071 289.316 308.151 286.321C312.291 280.358 308.597 272.55 304.685 264.283Z" fill="white"/>
<path d="M275.761 307.755L275.756 307.753C260.46 300.646 252.541 300.646 237.243 307.753C235.263 308.669 234.345 311.306 235.233 313.513C235.667 314.59 236.445 315.395 237.424 315.781C238.022 316.016 238.957 316.194 240.021 315.702C246.642 312.626 251.57 311.088 256.499 311.088C261.429 311.088 266.358 312.626 272.983 315.704C274.042 316.194 274.978 316.016 275.575 315.781C276.555 315.395 277.332 314.59 277.765 313.514C278.655 311.306 277.737 308.669 275.761 307.755Z" fill="white"/>
<path fill-rule="evenodd" clip-rule="evenodd" d="M313.918 290.278C310.529 295.157 304.645 298.069 298.177 298.069C292.541 298.069 286.242 295.205 279.572 292.174C272.001 288.732 264.172 285.174 256.5 285.126C248.828 285.174 240.999 288.732 233.428 292.174L233.425 292.175C226.756 295.206 220.458 298.069 214.823 298.069C208.355 298.069 202.471 295.157 199.083 290.278C192.651 281.016 197.605 270.551 201.975 261.317C201.975 261.317 224.566 215.391 225.758 212.907C235.016 193.613 240.846 182.587 245.133 179.579C248.473 177.237 252.404 176 256.5 176C260.596 176 264.526 177.237 267.866 179.578C272.155 182.587 277.985 193.613 287.243 212.909C288.435 215.393 311.026 261.319 311.026 261.319C315.395 270.552 320.348 281.017 313.918 290.278ZM283.946 222.145C289.898 233.989 304.685 264.283 304.685 264.283C308.597 272.55 312.291 280.358 308.151 286.321C306.071 289.316 302.342 291.103 298.177 291.103C294.068 291.103 288.442 288.546 282.487 285.839L282.483 285.838C274.617 282.262 265.702 278.21 256.519 278.16H256.5H256.481C247.297 278.211 238.381 282.263 230.514 285.839L230.513 285.839L230.512 285.84C224.557 288.547 218.932 291.103 214.824 291.103C210.658 291.103 206.93 289.316 204.85 286.321C200.709 280.357 204.404 272.549 208.316 264.283L208.317 264.281C208.317 264.281 230.877 218.42 232.084 215.905C236.119 207.494 245.57 187.798 249.174 185.27C251.325 183.762 253.858 182.965 256.5 182.965C259.142 182.965 261.676 183.762 263.826 185.269C267.431 187.798 276.882 207.496 280.918 215.907C282.124 218.422 283.166 220.593 283.946 222.145Z" fill="#E4EAF8"/>
<path fill-rule="evenodd" clip-rule="evenodd" d="M284.272 316.1C283.134 318.93 280.906 321.174 278.158 322.256C276.927 322.741 275.646 322.982 274.367 322.982C272.888 322.982 271.412 322.659 270.021 322.016C258.648 316.732 254.353 316.732 242.984 322.013C240.386 323.215 237.496 323.301 234.843 322.255C232.095 321.174 229.866 318.929 228.727 316.099C226.465 310.48 228.957 303.904 234.281 301.44C251.514 293.434 261.483 293.433 278.72 301.44C284.043 303.906 286.534 310.481 284.272 316.1ZM275.756 307.753L275.761 307.755C277.737 308.669 278.655 311.306 277.765 313.514C277.332 314.59 276.555 315.395 275.575 315.781C274.978 316.016 274.042 316.194 272.983 315.704C266.358 312.626 261.429 311.088 256.499 311.088C251.57 311.088 246.642 312.626 240.021 315.702C238.957 316.194 238.022 316.016 237.424 315.781C236.445 315.395 235.667 314.59 235.233 313.513C234.345 311.306 235.263 308.669 237.243 307.753C252.541 300.646 260.46 300.646 275.756 307.753Z" fill="#E4EAF8"/>
<path d="M264.814 333.589C264.335 335.062 262.96 336 261.482 336C261.124 336 260.761 335.945 260.402 335.83C257.302 334.833 255.697 334.833 252.598 335.83C250.757 336.422 248.781 335.418 248.186 333.589C247.59 331.759 248.6 329.795 250.441 329.203C254.915 327.765 258.086 327.765 262.56 329.203C264.401 329.795 265.41 331.758 264.814 333.589Z" fill="#E4EAF8"/>
</svg>
