<svg width="171" height="441" viewBox="0 0 171 441" fill="none" xmlns="http://www.w3.org/2000/svg">
<path fill-rule="evenodd" clip-rule="evenodd" d="M104.406 15.5884L101.415 38.7744L69.5174 38.7815L66.5193 15.5884L104.406 15.5884ZM116.922 53.7721L116.922 76.9652L54.0035 76.9652L54.0035 53.7721L116.922 53.7721ZM81.7716 166.096L81.7645 195.971C76.8077 195.554 72.0913 193.412 68.478 189.798C65.5435 186.864 63.9242 182.953 63.9242 178.796C63.9242 174.638 65.5364 170.735 68.478 167.793C72.0772 164.194 77.5714 163.635 81.7716 166.096Z" fill="#4D4D4D"/>
<path fill-rule="evenodd" clip-rule="evenodd" d="M170.719 411.95C170.719 419.756 167.537 426.842 162.41 431.968C157.284 437.095 150.205 440.27 142.399 440.27L28.5335 440.277C20.9746 440.27 13.854 437.321 8.50828 431.975C3.15548 426.622 0.213919 419.509 0.206848 411.95L0.213921 189.53C0.213921 169.462 11.0327 150.794 28.4558 140.824C41.212 133.513 49.1457 119.837 49.1457 105.129L49.1457 91.963H46.5011C42.3646 91.97 39.0058 88.6113 39.0058 84.4676L39.0058 46.2697C38.9987 42.1332 42.3575 38.7744 46.5011 38.7744L54.3925 38.7744L50.5458 9.04763C50.27 6.90509 50.9276 4.74842 52.356 3.13622C53.7702 1.50987 55.8279 0.583557 57.9916 0.583557L112.941 0.590624C115.098 0.583553 117.148 1.51693 118.577 3.12913C119.998 4.74841 120.655 6.90509 120.38 9.04762L116.533 38.7744L124.424 38.7744C128.568 38.7744 131.927 42.1332 131.927 46.2768L131.92 84.4676C131.927 86.5395 131.085 88.4133 129.728 89.7709C128.37 91.1286 126.496 91.97 124.424 91.963H121.78V105.129C121.78 119.837 129.713 133.513 142.47 140.824C159.893 150.794 170.712 169.462 170.712 189.53L170.719 411.95ZM104.406 15.5884L101.415 38.7744L69.5174 38.7815L66.5193 15.5884L104.406 15.5884ZM116.922 53.7721L116.922 76.9652L54.0035 76.9652L54.0035 53.7721L116.922 53.7721ZM106.782 91.97L106.782 105.136C106.782 125.204 117.601 143.872 135.024 153.842C147.787 161.146 155.714 174.829 155.714 189.537L155.714 239.345L155.714 411.95C155.721 415.507 154.328 418.851 151.811 421.369C149.293 423.886 145.956 425.272 142.392 425.272H28.5336C24.9768 425.265 21.6322 423.886 19.1149 421.369C16.5976 418.851 15.2187 415.507 15.2117 411.95L15.2117 189.537C15.2117 178.492 19.6735 168.048 27.2961 160.425C29.8346 157.887 32.7196 155.666 35.9016 153.842C53.3247 143.872 64.1434 125.204 64.1434 105.136L64.1435 91.97H106.782Z" fill="#4D4D4D"/>
<path fill-rule="evenodd" clip-rule="evenodd" d="M48.9265 178.803C48.9194 178.796 48.9265 178.789 48.9265 178.774C48.9336 170.622 52.1085 162.949 57.8714 157.187C67.9901 147.068 84.4586 147.075 94.5703 157.187C95.9774 158.594 96.7693 160.503 96.7693 162.497V191.474C97.4199 190.951 98.0209 190.392 98.6361 189.805L98.6432 189.798C104.038 184.403 107.001 177.24 107.008 169.625C107.001 162.009 104.038 154.846 98.6432 149.451C97.1795 147.987 96.4511 146.071 96.4441 144.155C96.4441 142.231 97.1795 140.308 98.6432 138.844C101.571 135.917 106.322 135.917 109.25 138.844C117.466 147.061 121.992 157.978 122.006 169.589V169.632V261.103L122.006 374.919C122.006 386.544 117.488 397.468 109.271 405.685L109.222 405.735C104.152 410.804 97.7593 414.227 90.7448 415.627C78.7806 418.031 66.4981 414.319 57.8785 405.699C52.1014 399.936 48.9194 392.257 48.9194 384.097L48.9265 178.803ZM81.7716 166.096L81.7645 195.971C76.8077 195.554 72.0913 193.412 68.478 189.798C65.5435 186.864 63.9242 182.953 63.9242 178.796C63.9242 174.638 65.5364 170.735 68.478 167.793C72.0772 164.194 77.5714 163.635 81.7716 166.096ZM107.008 202.463V258.932V287.428L107.008 374.926C107.008 382.534 104.045 389.697 98.6502 395.093L98.629 395.114C95.645 398.098 91.9045 400.099 87.7962 400.926C80.7605 402.333 73.548 400.155 68.4851 395.093C65.5435 392.151 63.9172 388.248 63.9242 384.097L63.9172 330.703L63.9172 300.354L63.9172 205.263C71.7731 210.319 81.3473 212.214 90.7377 210.333C96.7764 209.131 102.341 206.422 107.008 202.463Z" fill="#4D4D4D"/>
<path d="M104.406 15.5884L101.415 38.7744L69.5174 38.7815L66.5193 15.5884L104.406 15.5884Z" fill="#E0974F"/>
<path d="M54.0031 53.7754V76.9682H116.921V53.7754H54.0031Z" fill="#5DAA52"/>
<path fill-rule="evenodd" clip-rule="evenodd" d="M106.782 91.97L106.782 105.136C106.782 125.204 117.601 143.872 135.024 153.842C147.787 161.146 155.714 174.829 155.714 189.537L155.247 239.826C155.41 239.663 155.558 239.501 155.714 239.345L155.714 411.95C155.721 415.507 154.328 418.851 151.811 421.369C149.293 423.886 145.956 425.272 142.392 425.272H28.5336C24.9768 425.265 21.6322 423.886 19.1149 421.369C16.5976 418.851 15.2187 415.507 15.2117 411.95L15.2117 189.537C15.2117 178.492 19.6735 168.048 27.2961 160.425C29.8346 157.887 32.7196 155.666 35.9016 153.842C53.3247 143.872 64.1434 125.204 64.1434 105.136L64.1435 91.97H106.782ZM122.006 169.589V169.632V261.103L122.006 374.919C122.006 386.544 117.488 397.468 109.271 405.685L109.222 405.735C104.152 410.804 97.7593 414.227 90.7448 415.627C78.7806 418.031 66.4981 414.319 57.8785 405.699C52.1014 399.936 48.9194 392.257 48.9194 384.097L48.9265 178.803C48.9194 178.796 48.9265 178.789 48.9265 178.774C48.9336 170.622 52.1085 162.949 57.8714 157.187C67.9901 147.068 84.4586 147.075 94.5703 157.187C95.9774 158.594 96.7693 160.503 96.7693 162.497V191.474C97.4199 190.951 98.0209 190.392 98.6361 189.805L98.6432 189.798C104.038 184.403 107.001 177.24 107.008 169.625C107.001 162.009 104.038 154.846 98.6432 149.451C97.1795 147.987 96.4511 146.071 96.4441 144.155C96.4441 142.231 97.1795 140.308 98.6432 138.844C101.571 135.917 106.322 135.917 109.25 138.844C117.466 147.061 121.992 157.978 122.006 169.589Z" fill="#77CE6F"/>
<path d="M81.7716 166.096L81.7645 195.971C76.8077 195.554 72.0913 193.412 68.478 189.798C65.5435 186.864 63.9242 182.953 63.9242 178.796C63.9242 174.638 65.5364 170.735 68.478 167.793C72.0772 164.194 77.5714 163.635 81.7716 166.096Z" fill="#C6B54F"/>
<path d="M107.008 258.932V202.463C102.341 206.422 96.7764 209.131 90.7377 210.333C81.3473 212.214 71.7731 210.319 63.9172 205.263L63.9172 300.354L63.9172 330.703L63.9242 384.097C63.9172 388.248 65.5435 392.151 68.4851 395.093C73.548 400.155 80.7605 402.333 87.7962 400.926C91.9045 400.099 95.645 398.098 98.629 395.114L98.6502 395.093C104.045 389.697 107.008 382.534 107.008 374.926L107.008 287.428V258.932Z" fill="#E5D665"/>
</svg>
